<?xml version="1.0" standalone="no"?>
<!DOCTYPE svg PUBLIC "-//W3C//DTD SVG 1.1//EN" "http://www.w3.org/Graphics/SVG/1.1/DTD/svg11.dtd" >
<svg xmlns="http://www.w3.org/2000/svg">
<metadata></metadata>
<defs>
<font id="modern_pictogramspro" horiz-adv-x="1576" >
<font-face units-per-em="2048" ascent="1536" descent="-512" />
<missing-glyph horiz-adv-x="614" />
<glyph unicode=" "  horiz-adv-x="614" />
<glyph unicode="&#x09;" horiz-adv-x="614" />
<glyph unicode="&#xa0;" horiz-adv-x="614" />
<glyph unicode="!" horiz-adv-x="1624" d="M61 147q0 39 21 74l604 1045q41 73 127 73q83 0 127 -73l604 -1045q19 -36 19 -74q0 -63 -43.5 -105t-104.5 -42h-1204q-61 0 -105.5 43t-44.5 104zM692 266q0 -51 35.5 -86t87.5 -35t87.5 35t35.5 86q0 53 -35.5 89t-87.5 36q-53 0 -88 -35.5t-35 -89.5zM705 506h219 v489h-219v-489z" />
<glyph unicode="&#x22;" horiz-adv-x="1568" d="M125 618q0 182 89 335t242 242t335 89q181 0 334 -89t242 -242.5t89 -334.5q0 -135 -52.5 -258t-142 -212.5t-212.5 -142t-258 -52.5q-181 0 -334.5 89t-242.5 242t-89 334zM324 621q0 -193 137 -330t330 -137q147 0 262 79l-650 650q-79 -118 -79 -262zM518 999 l653 -651q86 127 86 273q0 193 -136.5 329.5t-329.5 136.5q-148 0 -273 -88z" />
<glyph unicode="#" horiz-adv-x="1298" d="M205 125v1102q0 53 36.5 89t88.5 36h645q53 0 89 -36t36 -89v-1102q0 -53 -36 -89t-89 -36h-645q-52 0 -88.5 36t-36.5 89zM346 954h612v172h-612v-172zM348 207q0 -22 16 -38.5t39 -16.5q22 0 39 16.5t17 38.5q0 23 -17 39t-39 16q-23 0 -39 -16t-16 -39zM348 375 q0 -23 16 -39.5t39 -16.5q22 0 39 16.5t17 39.5t-17 39t-39 16q-23 0 -39 -16t-16 -39zM348 541q0 -23 16 -39.5t39 -16.5q22 0 39 16.5t17 39.5t-17 39t-39 16q-23 0 -39 -16t-16 -39zM348 707q0 -22 16 -39t39 -17q22 0 39 17t17 39q0 23 -17 39t-39 16q-23 0 -39 -16 t-16 -39zM514 207q0 -22 16 -38.5t39 -16.5t39.5 16.5t16.5 38.5q0 23 -16.5 39t-39.5 16t-39 -16t-16 -39zM514 375q0 -23 16 -39.5t39 -16.5t39.5 16.5t16.5 39.5t-16.5 39t-39.5 16t-39 -16t-16 -39zM514 541q0 -23 16 -39.5t39 -16.5t39.5 16.5t16.5 39.5t-16.5 39 t-39.5 16t-39 -16t-16 -39zM514 707q0 -22 16 -39t39 -17t39.5 17t16.5 39q0 23 -16.5 39t-39.5 16t-39 -16t-16 -39zM680 207q0 -22 16 -38.5t39 -16.5t39.5 16.5t16.5 38.5q0 23 -16.5 39t-39.5 16t-39 -16t-16 -39zM680 375q0 -23 16 -39.5t39 -16.5t39.5 16.5t16.5 39.5 t-16.5 39t-39.5 16t-39 -16t-16 -39zM680 541q0 -23 16 -39.5t39 -16.5t39.5 16.5t16.5 39.5t-16.5 39t-39.5 16t-39 -16t-16 -39zM680 707q0 -22 16 -39t39 -17t39.5 17t16.5 39q0 23 -16.5 39t-39.5 16t-39 -16t-16 -39zM848 207q0 -22 16 -38.5t39 -16.5q22 0 38.5 16.5 t16.5 38.5q0 23 -16.5 39t-38.5 16q-23 0 -39 -16t-16 -39zM848 375q0 -23 16 -39.5t39 -16.5q22 0 38.5 16.5t16.5 39.5t-16.5 39t-38.5 16q-23 0 -39 -16t-16 -39zM848 541q0 -23 16 -39.5t39 -16.5q22 0 38.5 16.5t16.5 39.5t-16.5 39t-38.5 16q-23 0 -39 -16t-16 -39z M848 707q0 -22 16 -39t39 -17q22 0 38.5 17t16.5 39q0 23 -16.5 39t-38.5 16q-23 0 -39 -16t-16 -39z" />
<glyph unicode="$" horiz-adv-x="2119" d="M129 580q124 0 244 39t220 101.5t199.5 138t199 151.5t199.5 138.5t220 102t244 39.5q59 -128 169.5 -365t149.5 -321q-124 0 -241.5 -36.5t-215 -95.5t-193.5 -131t-194 -146.5t-198 -137.5t-225.5 -108t-257.5 -55q-53 115 -160 343.5t-160 342.5zM326 471 q35 -75 104.5 -223t104.5 -223q215 41 462 223q-58 22 -102.5 67t-71.5 103q-52 115 -32 274q-121 -88 -232 -144t-233 -77zM526 313q47 0 70 2q0 -2 4 -14q-25 -12 -61 -25q-10 20 -13 37zM537 365q6 20 18 32q8 -6 25 -20.5t26 -20.5q-4 -12 -8 -16q-13 6 -61 25zM573 231 q7 8 21.5 24t21.5 24q6 -6 15 -9q-2 -4 -23 -57q-16 3 -35 18zM598 432q23 8 37 10q1 -11 4 -32t4 -33q-14 -5 -16 -6q-5 10 -14.5 30.5t-14.5 30.5zM655 268q9 0 17 4q5 -10 14 -29.5t14 -29.5q-10 -6 -34 -10q-11 62 -11 65zM668 375q6 23 22 63q15 -3 31 -16 q-6 -9 -19.5 -27.5t-19.5 -27.5q-2 1 -7 4t-7 4zM692 289q1 1 2.5 4l3 6t2.5 6q24 -10 64 -20q-10 -20 -19 -35q-9 6 -53 39zM698 346v2q34 17 58 33h2q4 -11 8 -37q-27 -8 -64 -14q0 12 -4 16zM1104 934q114 -40 172 -165t35 -277q247 182 467 221q-38 80 -107.5 229.5 t-101.5 216.5q-222 -42 -465 -225zM1327 899q12 9 31 19q45 -92 72 -154q-13 -5 -33 -19q-12 26 -34.5 77.5t-35.5 76.5zM1397 938q6 3 15 8t15 8q49 -99 74 -153q-5 -2 -15.5 -7.5t-17.5 -7.5q-50 111 -71 152zM1468 971q32 13 33 14q13 -29 38.5 -81.5t33.5 -69.5 q-17 -8 -33 -13q-52 111 -72 150z" />
<glyph unicode="%" horiz-adv-x="1699" d="M203 657l200 203l304 -299l628 684l224 -203l-818 -917z" />
<glyph unicode="&#x26;" horiz-adv-x="1679" d="M193 270v842q0 15 10 25t24 10h224v90q0 78 30.5 163.5t80.5 156.5t122 117t147 46q76 0 148 -46t122 -117t80.5 -156.5t30.5 -163.5v-90h224q14 0 24 -10t10 -25v-842q0 -28 -63 -95.5t-125 -120.5l-63 -54h-770q-10 8 -27.5 22.5t-61.5 53.5t-78 72.5t-61.5 68.5 t-27.5 53zM266 270h185v803h-185v-803zM618 270h426v803h-426v-803zM618 1147h426v233q0 99 -59 166.5t-154 67.5t-154 -67.5t-59 -166.5v-233zM1212 270h185v803h-185v-803z" />
<glyph unicode="'" horiz-adv-x="1568" d="M123 618q0 136 52.5 259.5t141.5 212.5t212 141.5t259 52.5q181 0 334 -89t242.5 -242.5t89.5 -334.5q0 -180 -89.5 -333.5t-242.5 -242.5t-334 -89q-136 0 -259 52.5t-212 142t-141.5 212.5t-52.5 258zM317 618q0 -195 138 -333t333 -138q127 0 235 63t171 171.5 t63 236.5t-63 236t-171 170.5t-235 62.5q-128 0 -236.5 -62.5t-171.5 -170.5t-63 -236zM586 618q0 84 59 142.5t143 58.5q83 0 142 -59t59 -142q0 -84 -58.5 -143t-142.5 -59q-85 0 -143.5 58.5t-58.5 143.5z" />
<glyph unicode="(" horiz-adv-x="1914" d="M211 973l10 16l129 -84l5 -2.5t12.5 -5t19 -4.5t23.5 0t27 6.5t28 18.5t27 32q31 55 29 89.5t-20 50.5l-18 16l-129 82l13 16q5 3 14 7.5t37 13.5t56.5 11.5t70 -6t80.5 -30.5q65 -38 94 -107.5t12 -142.5q-9 -43 0.5 -67t46.5 -64l172 -170l201 207l152 -151l-201 -199 l362 -324q38 -38 38 -92t-40 -94q-38 -38 -93 -38t-95 38l-328 350l-307 -371q-22 -24 -55.5 -24t-55.5 24l-77 80q-25 23 -25 56.5t23 56.5l354 330l-170 161q-44 41 -73 53.5t-62 2.5q-88 -31 -168 22q-35 22 -60 54.5t-36 63t-17 58t-6 43.5v17zM905 1208q101 26 190 29 t144.5 -9t107 -39t72.5 -44.5t46 -42.5l3 -3l2.5 -2.5l2.5 -2.5l108 -109q12 -13 14 -69t23 -78q20 -23 53 -27q19 18 44.5 17t43.5 -19l23 -23q18 -19 17 -42.5t-19 -41.5l-123 -122q-19 -19 -43 -20t-43 18l-23 22q-19 19 -19 44t19 44q8 26 -32 66q-36 36 -78 42t-62 -16 l-41 -43l-149 154l43 41q21 25 19.5 47.5t-13.5 37.5l-12 15q-37 37 -83 63.5t-85.5 38t-73.5 18t-54 6.5l-20 1zM1300 90q0 -29 20.5 -49.5t49.5 -20.5t49.5 20.5t20.5 49.5t-20.5 49.5t-49.5 20.5t-49.5 -20.5t-20.5 -49.5z" />
<glyph unicode=")" horiz-adv-x="1480" d="M154 78q45 25 82.5 53.5t65.5 60t48 57t37 58.5t24.5 50t18.5 45.5t12 31.5q7 -36 41 -62t74.5 -31t79.5 9q45 -42 104.5 -43.5t110.5 43.5q56 -25 116 0.5t85 83.5h2l23 -46t31 -59.5t39.5 -61t54 -67t68.5 -59t89 -53.5q-1 -3 -3 -8.5t-14.5 -18t-31.5 -22t-57.5 -16 t-88.5 -3.5l-63 -145q-9 3 -24 9.5t-59.5 33t-86 59.5t-93 92.5t-89.5 129.5q-37 -67 -82.5 -125t-84.5 -92.5t-72.5 -59.5t-52.5 -35l-20 -10l-59 164q-70 -16 -120 -8t-77 27zM268 815q-11 18 -11.5 50t11.5 50q3 5 17.5 8t36.5 4t39 1.5t39.5 0t23.5 -0.5q-4 2 -23 8.5 t-35 13t-35 15t-30.5 17t-13.5 15.5q-9 40 18.5 76t56.5 33q4 0 28.5 -13t52 -28.5t30.5 -17.5l-32 32t-50 54.5t-16 33.5q3 25 31.5 48.5t52.5 23.5q5 0 25.5 -19.5t49.5 -50t31 -32.5q-63 131 -49 151q10 16 35.5 26.5t46.5 10.5q19 0 44 -48t40 -89q0 3 -0.5 24.5 t-0.5 38.5t1 38.5t4.5 35.5t9.5 18q18 11 50.5 11.5t50.5 -11.5q6 -3 9.5 -17.5t4.5 -36t1 -38.5t-0.5 -38t-0.5 -23q59 135 82 135q57 0 84 -37q2 -7 2.5 -13t-4 -20.5t-8.5 -25.5t-11 -27t-11 -25.5t-9 -21t-6 -12.5q2 2 14.5 15t24.5 25.5t25.5 25.5t24 21.5t13.5 8.5 q30 0 54.5 -21t33.5 -51q4 -10 -17.5 -35t-50 -52.5t-32.5 -32.5q98 59 113 59q27 0 51.5 -29t21.5 -76q0 -5 -6.5 -11t-17 -12.5t-22 -12.5t-26.5 -12t-25.5 -10.5t-22.5 -9t-15 -5.5q2 0 24.5 0.5t39.5 0t38.5 -1.5t35 -4t16.5 -8q12 -17 12 -50t-12 -50q-3 -6 -17 -10 t-35 -5.5t-38.5 -1.5t-38.5 0.5t-23 0.5q3 -1 40 -16t64 -29.5t29 -24.5q7 -37 -20 -72.5t-53 -35.5q-5 0 -29.5 12.5t-52 28t-29.5 16.5q2 -2 16 -15t27 -26t27.5 -28.5t22 -27.5t5.5 -18q-6 -28 -34 -52t-54 -24q-5 0 -26 21.5t-46 49t-28 30.5q0 -1 16.5 -41t25 -69 t3.5 -36q-10 -17 -36.5 -29t-47.5 -12q-12 0 -28.5 29t-32.5 67t-19 42q0 -141 -16 -152q-19 -12 -51.5 -12t-49.5 12q-14 9 -14 154q-56 -140 -84 -140q-47 0 -82 41q-9 10 10 63t35 83q-7 -6 -31 -32.5t-45 -47.5t-26 -21q-22 0 -52 25t-34 51q-3 13 34 53t64 64 q-3 -2 -31.5 -18t-54 -30t-29.5 -14q-26 0 -49.5 37.5t-17.5 75.5q2 10 29 24t63 28t39 16q-1 0 -21.5 -0.5t-37.5 -0.5t-38.5 1.5t-36 5.5t-18.5 10zM426 864q0 -130 95 -223.5t227 -93.5q130 0 222.5 93t92.5 224q0 132 -92.5 226t-222.5 94q-132 0 -227 -94t-95 -226z M500 864q0 103 72.5 174.5t175.5 71.5q101 0 171 -71.5t70 -174.5q0 -101 -70 -172t-171 -71q-103 0 -175.5 71t-72.5 172z" />
<glyph unicode="*" horiz-adv-x="1617" d="M123 805h524l162 495l162 -495h524l-424 -307l162 -500l-424 307l-426 -307l164 500z" />
<glyph unicode="+" horiz-adv-x="1378" d="M164 489v283h375v358h292v-358h375v-283h-375v-378h-292v378h-375z" />
<glyph unicode="," horiz-adv-x="1116" d="M123 924q0 183 128 310.5t312 127.5t314.5 -128t130.5 -310q0 -35 -6.5 -71t-22.5 -74.5t-28.5 -66.5t-39 -70.5t-38.5 -61t-43.5 -63t-38.5 -54.5q-52 -74 -92.5 -151.5t-61.5 -135t-35 -105t-18 -71.5l-4 -25q-2 -9 -7 -12t-10.5 0t-7.5 12q-1 9 -4.5 25.5t-19.5 69.5 t-37.5 107.5t-62.5 133t-91 152.5q-122 170 -151 220q-61 107 -66 219v22zM401 915q0 -71 49.5 -122.5t116.5 -51.5q71 0 120.5 51.5t49.5 122.5t-49 119.5t-121 48.5q-68 0 -117 -49t-49 -119z" />
<glyph unicode="-" horiz-adv-x="1114" d="M111 225l440 774l444 -774h-884z" />
<glyph unicode="." horiz-adv-x="1566" d="M88 682l23 133l188 33l53 92l-65 178l102 86l166 -94l100 35l66 180h133l66 -180l100 -37l164 96l102 -86l-63 -180l51 -92l188 -33l23 -131l-164 -96l-18 -105l120 -145l-65 -117l-189 33l-82 -68v-190l-124 -45l-123 145h-107l-123 -145l-125 45l-2 190l-80 70 l-188 -33l-65 115l120 147l-18 105zM547 627q0 -100 69.5 -170t169.5 -70t170 70t70 170t-70 169.5t-170 69.5t-169.5 -69.5t-69.5 -169.5z" />
<glyph unicode="/" horiz-adv-x="1122" d="M111 999h884l-440 -774z" />
<glyph unicode="0" horiz-adv-x="1435" d="M205 371v469h272l481 -484v-368l-383 383h-370zM227 1149q-13 13 -14.5 31t7.5 31.5t22 23.5t30.5 8.5t32.5 -16.5l1059 -1059q23 -20 13 -50.5t-37 -39.5t-54 12zM664 930l294 293v-588z" />
<glyph unicode="1" horiz-adv-x="1501" d="M205 371v469h370l383 383v-1235l-383 383h-370zM1069 340q55 55 84 127t29 147q0 152 -105 260l101 101q76 -77 117.5 -174t41.5 -199q0 -208 -161 -366z" />
<glyph unicode="2" horiz-adv-x="1818" d="M205 371v469h370l383 383v-1235l-383 383h-370zM1069 340q55 55 84 127t29 147q0 152 -105 260l101 101q76 -77 117.5 -174t41.5 -199q0 -208 -161 -366zM1298 135q94 92 142.5 215t48.5 256q0 132 -49 256t-142 217l109 109q119 -119 183.5 -273.5t64.5 -318.5 q0 -157 -60.5 -304.5t-181.5 -268.5z" />
<glyph unicode="3" horiz-adv-x="1998" d="M205 0v1219h1589v-1219h-1589zM315 111h260v258h-260v-258zM315 479h260v260h-260v-260zM315 850h260v258h-260v-258zM686 111h258v258h-258v-258zM686 479h258v260h-258v-260zM686 850h258v258h-258v-258zM1055 111h260v258h-260v-258zM1055 479h260v260h-260v-260z M1055 850h260v258h-260v-258zM1425 111h258v258h-258v-258zM1425 479h258v260h-258v-260zM1425 850h258v258h-258v-258z" />
<glyph unicode="4" horiz-adv-x="1722" d="M205 90v262h262v-262h-262zM205 463v266h262v-266h-262zM205 842v264h262v-264h-262zM643 152v133h875v-133h-875zM643 508v133h875v-133h-875zM643 885v133h875v-133h-875z" />
<glyph unicode="5" horiz-adv-x="1665" d="M205 842v303h344v-303h-344zM246 0v113h262v-113h-262zM246 287v112h262v-112h-262zM246 573v113h262v-113h-262zM659 842v303h345v-303h-345zM700 0v113h263v-113h-263zM700 287v112h263v-112h-263zM700 573v113h263v-113h-263zM1116 842v303h344v-303h-344zM1157 0v113 h262v-113h-262zM1157 287v112h262v-112h-262zM1157 573v113h262v-113h-262z" />
<glyph unicode="6" horiz-adv-x="1802" d="M156 360l393 488q32 40 83 49.5t95 -16.5l375 -219l332 409q36 43 92.5 49t101.5 -30q44 -35 50 -93t-29 -102l-406 -500q-32 -38 -83 -47t-95 17l-375 217l-319 -396q-42 -51 -109 -51q-39 0 -72.5 22.5t-50 55.5t-13.5 73.5t30 73.5z" />
<glyph unicode="7" horiz-adv-x="1523" d="M205 0v881h295v-881h-295zM614 0v655h295v-655h-295zM1024 0v1219h295v-1219h-295z" />
<glyph unicode="8" horiz-adv-x="1503" d="M123 518q0 148 72.5 273.5t197.5 198.5t273 73v-551h544q-1 -88 -29 -170t-78 -148t-117 -115.5t-149.5 -76.5t-170.5 -27q-148 0 -273 72.5t-197.5 197.5t-72.5 273zM838 684v549q148 0 273 -72.5t197 -197.5t72 -273v-6h-542zM1210 512v6v-6z" />
<glyph unicode="9" horiz-adv-x="1378" d="M131 154q0 33 25 61q55 112 92 218.5t53.5 180t30 138t32 118t48.5 95.5q38 53 84.5 84.5t113.5 46.5q3 40 32.5 67t70.5 27q40 0 69.5 -27t32.5 -67q124 -27 199 -131q30 -42 48.5 -95.5t32 -118t30 -138t53.5 -180t92 -218.5q26 -29 26 -61q0 -51 -60 -92.5t-151 -66 t-188.5 -37.5t-183.5 -13t-183 13t-188.5 37.5t-151 66t-59.5 92.5zM250 195q57 -68 187.5 -96.5t275.5 -26.5q362 0 463 123q-101 120 -463 120t-463 -120zM621 244q0 14 92 14t92 -14q0 -43 -27 -73t-65 -30t-65 30t-27 73z" />
<glyph unicode=":" horiz-adv-x="2088" d="M139 334q0 139 98 236.5t236 97.5q16 0 62 -4q-25 123 22 247.5t156 214.5q100 82 221 107t233.5 -11t188.5 -126q64 -82 82 -178q114 14 223 -29.5t186 -136.5q80 -98 100.5 -219.5t-21 -236.5t-136.5 -194q-126 -99 -279 -102h-329v365h229l-367 364l-364 -364h229 v-365h-436q-138 0 -236 98t-98 236z" />
<glyph unicode=";" horiz-adv-x="2109" d="M139 334q0 139 98 236.5t236 97.5q16 0 62 -4q-25 123 22 247.5t156 214.5q100 82 221 107t233.5 -11t188.5 -126q64 -82 82 -178q114 14 223 -29.5t186 -136.5q80 -98 100.5 -219.5t-21 -236.5t-136.5 -194q-126 -99 -279 -102h-1038q-138 0 -236 98t-98 236zM680 426 l367 -363l364 363h-229v344h-273v-344h-229z" />
<glyph unicode="&#x3c;" horiz-adv-x="1165" d="M164 621l835 423v-843z" />
<glyph unicode="=" d="M123 618q0 136 52.5 259.5t141.5 212.5t212 141.5t259 52.5q181 0 334 -89t242.5 -242.5t89.5 -334.5q0 -180 -89.5 -333.5t-242.5 -242.5t-334 -89q-136 0 -259 52.5t-212 142t-141.5 212.5t-52.5 258zM674 963q0 -50 34 -84.5t83 -34.5q50 0 83 34t33 85q0 48 -33.5 81 t-82.5 33t-83 -33.5t-34 -80.5zM692 213h199v575h-199v-575z" />
<glyph unicode="&#x3e;" horiz-adv-x="1122" d="M205 201v843l835 -419z" />
<glyph unicode="?" d="M123 618q0 136 52.5 259.5t141.5 212.5t212 141.5t259 52.5q181 0 334 -89t242.5 -242.5t89.5 -334.5q0 -180 -89.5 -333.5t-242.5 -242.5t-334 -89q-136 0 -259 52.5t-212 142t-141.5 212.5t-52.5 258zM524 791h213q0 94 47 94q45 0 45 -94q0 -59 -27.5 -84t-86.5 -25 q-19 0 -33 2v-201h213v84q158 41 158 224q0 118 -75.5 192t-191.5 74q-129 0 -195.5 -68.5t-66.5 -197.5zM664 266q0 -51 36.5 -89t87.5 -38t88 38t37 89t-37 89t-88 38t-87.5 -37.5t-36.5 -89.5z" />
<glyph unicode="@" horiz-adv-x="1513" d="M129 621q0 297 190 481q93 90 218 137q125 51 276 51q140 0 260.5 -45t204.5 -129q154 -148 154 -395q0 -168 -76 -297q-96 -152 -266 -152q-58 0 -102.5 25.5t-61.5 69.5q-33 -42 -82.5 -66.5t-104.5 -24.5q-127 0 -197.5 91.5t-70.5 234.5q0 149 85 247.5t226 98.5 q87 0 148 -61l12 43h139l-28 -424q-3 -55 14 -72q9 -12 33 -12q44 0 78.5 32.5t53 81t27.5 96.5t9 89q0 193 -126 303.5t-327 110.5q-229 0 -372.5 -148t-143.5 -379q0 -105 36.5 -199t102.5 -163q133 -133 336 -133q224 0 395 75l25 13v-158l-10 -4q-168 -82 -412 -82 q-268 0 -440 158q-99 90 -151 220.5t-52 285.5zM643 602q0 -25 4 -50.5t15 -55.5t37 -49t63 -19q74 0 112 66q29 52 29 139q0 168 -125 168q-66 0 -100.5 -58.5t-34.5 -140.5z" />
<glyph unicode="A" horiz-adv-x="1902" d="M205 125v774q0 52 37 88.5t88 36.5h116v92h132v-92h995q53 0 89 -36t36 -89v-774q0 -53 -36 -89t-89 -36h-1243q-51 0 -88 36.5t-37 88.5zM291 678l368 2q55 63 131 99t162 36q85 0 161 -36t130 -99h369v194q0 26 -19 45t-45 19h-1194q-26 0 -44.5 -19t-18.5 -45v-196z M629 432q0 -133 94.5 -227t228.5 -94q132 0 227 94t95 227t-95 228.5t-227 95.5q-133 0 -228 -95t-95 -229zM750 432q0 84 59 143.5t143 59.5q83 0 142 -60t59 -143t-59 -142t-142 -59q-84 0 -143 58.5t-59 142.5zM1188 1051v110h270v-110h-270z" />
<glyph unicode="B" horiz-adv-x="1449" d="M205 209v952q0 51 36 87t87 36h762v-944h-668q-65 0 -104 -33.5t-39 -93.5v-4q0 -61 39.5 -98t103.5 -37h766v1026h57v-1100h-823q-92 0 -154.5 58.5t-62.5 150.5zM395 211q0 12 10.5 19.5t24.5 7.5h660v-58h-660q-14 0 -24.5 8.5t-10.5 22.5z" />
<glyph unicode="C" horiz-adv-x="1570" d="M123 621q0 134 52.5 256.5t141 211t211 141t256.5 52.5q180 0 333 -88.5t242 -240.5t89 -332t-89 -332.5t-241.5 -241t-333.5 -88.5q-180 0 -332 88.5t-240.5 241t-88.5 332.5zM303 252q10 -14 53 -62q53 -53 131 -98l150 283q65 -41 149 -41q121 0 204 83.5t83 203.5 q0 117 -80 200l271 172q-21 31 -50 56q-57 57 -133 102l-149 -283q-64 39 -146 39q-120 0 -203 -83t-83 -203q0 -116 75 -197zM664 621q0 52 35.5 88t86.5 36q53 0 89 -36t36 -88q0 -50 -36.5 -86.5t-88.5 -36.5q-49 0 -85.5 36.5t-36.5 86.5zM725 621q0 -26 17.5 -44 t43.5 -18t45 18t19 44t-19 44.5t-45 18.5t-43.5 -18.5t-17.5 -44.5z" />
<glyph unicode="D" horiz-adv-x="1431" d="M205 0v1245h686l336 -344v-901h-1022zM352 147h727v650q0 34 -14.5 44.5t-48.5 10.5h-139v152q0 38 -32.5 66t-82.5 28h-410v-951zM438 565h189v170h174v-172h192l-276 -321z" />
<glyph unicode="E" horiz-adv-x="1843" d="M123 516q7 12 19.5 32t55.5 77.5t89.5 110.5t119.5 117t148 110.5t172.5 78t194.5 31.5t194 -30.5t173.5 -80t146.5 -109t120.5 -118.5t88.5 -108.5t57 -80.5l18 -30q-7 -12 -19.5 -32t-55 -77.5t-89.5 -110t-119.5 -116.5t-147.5 -110t-172.5 -77.5t-194.5 -31.5 t-194 30.5t-173.5 79.5t-146.5 108t-121 118.5t-88.5 108.5t-56.5 80zM530 516q0 -161 115.5 -276t276.5 -115t276 115t115 276t-115 276t-276 115t-276.5 -115t-115.5 -276zM748 516q0 71 51.5 123.5t122.5 52.5q70 0 123 -53t53 -123q0 -71 -52.5 -122.5t-123.5 -51.5 q-72 0 -123 51t-51 123z" />
<glyph unicode="F" horiz-adv-x="950" d="M164 569v260h149v191q0 118 66 180t194 62h213v-240h-114q-60 0 -79.5 -29t-19.5 -80v-84h213l-20 -260h-193v-569h-260v569h-149z" />
<glyph unicode="G" horiz-adv-x="1654" d="M205 129v985q0 129 129 129h985q69 0 100 -30.5t31 -98.5v-985q0 -65 -31.5 -97t-99.5 -32h-338v406h160v194h-160v129q0 36 14.5 57t59.5 21h86v182h-183q-96 0 -146 -47t-50 -135v-207h-131v-194h131v-406h-428q-129 0 -129 129z" />
<glyph unicode="H" horiz-adv-x="1896" d="M164 723v276q0 46 46 89.5t113 73t131.5 48.5t112.5 25q40 5 107 8t137 2t131 -2t106 -3l46 -1q56 0 94.5 -38.5t38.5 -92.5v-111h235v-276h-235v-107q0 -57 -38 -95t-95 -38l-48 -1q-47 -2 -111 -3t-135.5 -1.5t-136.5 1.5t-98 6q-39 5 -101 24t-131.5 49t-119 75 t-49.5 92zM412 795q0 -50 34.5 -84.5t83.5 -34.5q50 0 84.5 35t34.5 84t-34.5 83.5t-84.5 34.5t-84 -34.5t-34 -83.5zM776 401h287l115 -401h-242q-52 0 -68 63zM1536 721v278l197 144v-568z" />
<glyph unicode="I" horiz-adv-x="1619" d="M143 1200q0 31 21.5 52.5t52.5 21.5h1186q30 0 52 -22t22 -52t-22 -52t-52 -22h-10l-222 -1126h-716l-219 1126h-19q-31 0 -52.5 21.5t-21.5 52.5zM348 1126l12 -65l66 65h-78zM377 975l29 -139l43 -43l126 127l-126 124zM436 676l41 -211l98 98l-126 125zM500 383 l127 -125l127 125l-127 127zM500 741l127 -127l127 127l-127 125zM500 1098l127 -127l127 127l-31 28h-193zM518 262l29 -151h123zM680 205l94 -94h62l96 94l-127 127zM680 563l125 -127l127 127l-127 125zM680 920l125 -127l127 127l-127 124zM858 383l125 -125l127 125 l-127 127zM858 741l125 -127l127 127l-127 125zM858 1098l125 -127l127 127l-31 28h-192zM940 111h139l35 172zM1036 563l111 -112l41 211l-27 26zM1036 920l125 -127l66 63l20 105l-86 83zM1184 1126l80 -77l16 77h-96z" />
<glyph unicode="J" horiz-adv-x="1536" d="M147 362l398 689l323 202l156 -88q7 24 19 79t22 86t41.5 78t81.5 89q39 32 91 31.5t95 -25.5t73 -68.5t30 -91.5q0 -82 -107 -133q-73 -33 -178 -45q-85 -11 -115 -30l152 -88l-17 -381l-397 -689q-13 -25 -40 -32.5t-50 6.5l-551 319q-25 13 -33 40t6 52zM805 940 q0 -50 34.5 -84.5t84.5 -34.5q49 0 83.5 34.5t34.5 84.5t-34.5 84.5t-83.5 34.5q-50 0 -84.5 -34.5t-34.5 -84.5zM1063 1167q38 26 125 33q110 13 168 41q88 39 88 102q0 34 -23 69t-57 56.5t-75 25.5t-77 -24q-19 -14 -34 -27.5t-27.5 -31.5t-21 -27.5t-17.5 -33t-13 -30.5 t-11 -36.5t-8 -34.5t-8.5 -41t-8.5 -41z" />
<glyph unicode="K" horiz-adv-x="1431" d="M205 0v1245h686l336 -344v-901h-1022zM352 147h727v650q0 34 -14.5 44.5t-48.5 10.5h-201v152q0 38 -32.5 66t-82.5 28h-348v-951zM494 301v55h458v-55h-458zM494 465v55h458v-55h-458zM494 629v55h458v-55h-458z" />
<glyph unicode="L" horiz-adv-x="1636" d="M186 606q-21 38 -22 80t12 72.5t33 48.5q-25 58 -10.5 107t55.5 79q-56 176 146 211q158 27 407 -32q153 -36 191 -66q2 -1 3 -2v94q0 20 14.5 34.5t33.5 14.5h333q20 0 35 -14.5t15 -34.5v-788q0 -19 -15 -33.5t-35 -14.5h-333q-19 0 -33.5 14.5t-14.5 33.5v53 q-45 -29 -87 -78t-68.5 -96.5t-47.5 -95.5t-30 -74t-10 -33q-43 -168 -176 -168q-76 0 -137.5 73.5t-61.5 207.5q0 38 12.5 87.5t34.5 88.5h-31q-48 0 -89.5 11.5t-77.5 38.5t-47.5 71.5t1.5 109.5zM375 627q-55 0 -68 -40q-12 -38 20 -69q28 -26 72 -26h123q30 0 46 -16 t16 -38q0 -20 -42 -106t-42 -131q0 -72 27 -119t55 -47q25 0 40.5 17.5t18.5 45.5q12 81 68 186t136.5 195t155.5 123v371q-227 113 -503 119q-82 4 -125 -37q-35 -33 -10 -64q19 -24 69 -35q23 -3 23 -16q-1 -13 -19 -14q-86 0 -112 -43q-19 -32 11 -59q20 -16 54 -21 q13 -1 18 -7t0 -12t-18 -6q-55 0 -79 -31t-4.5 -62.5t69.5 -33.5q11 -1 15.5 -7t0 -11.5t-15.5 -5.5z" />
<glyph unicode="M" horiz-adv-x="1228" d="M205 123v1108q0 51 36 87t87 36h573q51 0 87 -36t36 -87v-1108q0 -51 -36 -87t-87 -36h-573q-51 0 -87 36t-36 87zM332 813h565v397h-565v-397zM354 420q0 -107 77 -183.5t183 -76.5q107 0 183.5 76.5t76.5 183.5t-76.5 183.5t-183.5 76.5q-106 0 -183 -76.5t-77 -183.5z M516 420q0 41 28.5 69.5t69.5 28.5t70 -28.5t29 -69.5t-29 -69.5t-70 -28.5t-69.5 28.5t-28.5 69.5z" />
<glyph unicode="N" horiz-adv-x="1124" d="M205 127v1102q0 53 36.5 89t88.5 36h465q53 0 89 -36t36 -89v-1102q0 -53 -36.5 -90t-88.5 -37h-465q-52 0 -88.5 37t-36.5 90zM305 184q0 -31 20.5 -52t51.5 -21h69v73h-141zM305 236h141v73h-141v-73zM305 360h141v74h-141v-74zM305 485h141v74h-141v-74zM305 637h514 v487h-514v-487zM483 1255q0 -12 7.5 -20t19.5 -8h104q11 0 18 8t7 20q0 11 -7.5 19t-17.5 8h-104q-12 0 -19.5 -8t-7.5 -19zM492 111h141v73h-141v-73zM492 236h141v73h-141v-73zM492 360h141v74h-141v-74zM492 485h141v74h-141v-74zM678 111h70q31 0 51 21t20 52h-141v-73z M678 236h141v73h-141v-73zM678 360h141v74h-141v-74zM678 485h141v74h-141v-74z" />
<glyph unicode="O" horiz-adv-x="1138" d="M205 123v1098q0 59 38 96t99 37h463q61 0 99 -37t38 -96v-1098q0 -51 -36 -87t-87 -36h-491q-51 0 -87 36t-36 87zM279 254h589v901h-589v-901zM463 1249q0 -11 7 -18.5t17 -7.5h170q12 0 19.5 7.5t7.5 18.5q0 12 -7.5 20.5t-19.5 8.5h-170q-10 0 -17 -8.5t-7 -20.5z M504 129q0 -29 20 -49.5t49 -20.5t49.5 20.5t20.5 49.5t-20.5 49.5t-49.5 20.5t-49 -20.5t-20 -49.5z" />
<glyph unicode="P" horiz-adv-x="1712" d="M205 121v776q0 64 31 95t90 26h1060q65 0 94 -28.5t29 -92.5v-776q0 -121 -123 -121h-1060q-121 0 -121 121zM606 215l580 293l-580 293v-586z" />
<glyph unicode="Q" horiz-adv-x="1615" d="M209 164v1210q0 68 47.5 116t114.5 48h882q67 0 114.5 -48t47.5 -116v-1210q0 -68 -47.5 -116t-114.5 -48h-882q-67 0 -114.5 48t-47.5 116zM356 254h912v1087h-912v-1087zM741 129q0 -29 20.5 -49.5t49.5 -20.5t49.5 20.5t20.5 49.5t-20.5 49.5t-49.5 20.5t-49.5 -20.5 t-20.5 -49.5z" />
<glyph unicode="R" horiz-adv-x="1353" d="M123 524q0 109 42.5 210t119.5 181q79 77 179 119.5t208 42.5l-70 299l574 -395l-551 -420l49 320q-148 -2 -252.5 -106t-104.5 -251q0 -148 105.5 -253t253.5 -105q149 0 252.5 105t103.5 253h197q0 -110 -42 -211.5t-120 -179.5t-179.5 -120t-211.5 -42t-211.5 42 t-179.5 120q-77 79 -119.5 180.5t-42.5 210.5z" />
<glyph unicode="S" horiz-adv-x="1826" d="M213 408q0 27 19 46.5t47 22.5v658q-28 2 -47 21.5t-19 47.5q0 29 21.5 49.5t50.5 20.5h592l28 100h19l28 -100h600q29 0 50.5 -20.5t21.5 -49.5t-21.5 -50t-50.5 -21v-656q30 0 51 -20t21 -49t-21.5 -50.5t-50.5 -21.5h-591v-49l251 -187q11 -8 12 -20t-10 -20.5 t-26 -2.5l-234 115l-14 -209q-3 -33 -16 -46t-26.5 0t-16.5 46l-15 209l-231 -115q-20 -7 -31 12.5t6 30.5l250 187v49h-575q-29 0 -50.5 21.5t-21.5 50.5zM369 477h1093v656h-1093v-656z" />
<glyph unicode="T" horiz-adv-x="1654" d="M205 129v985q0 129 129 129h985q69 0 100 -30.5t31 -98.5v-985q0 -65 -31.5 -97t-99.5 -32h-985q-129 0 -129 129zM381 330q16 -16 66.5 -39.5t129 -42.5t161.5 -23t173 26t156 97q32 31 56 66.5t38 68.5t24 68t13 65.5t5 61t1 54.5t0 46v33l111 96v11l-111 -19l86 82 l-2 8q-21 -13 -50.5 -19.5t-63.5 -9.5t-41 -4q-45 48 -117 48q-104 0 -159.5 -75t-25.5 -163q-69 2 -135 23.5t-111 50.5t-80 57.5t-52 48.5l-17 19q-16 -43 -11.5 -81t22.5 -70.5t38 -56t36 -37.5l16 -13q-23 2 -54 8.5t-51 12.5l-20 5q0 -42 19 -77t46 -55t54 -34t46 -19 l19 -5h-113q10 -33 31.5 -59.5t44 -40t44 -22t35.5 -11.5l13 -2q-42 -38 -109.5 -57.5t-113.5 -20.5h-47z" />
<glyph unicode="U" horiz-adv-x="2070" d="M207 430v981q0 51 36.5 88t88.5 37h1407q52 0 88.5 -37t36.5 -88v-981q0 -51 -36.5 -88t-88.5 -37h-1407q-52 0 -88.5 37t-36.5 88zM354 502h1362v837h-1362v-837zM686 29v45h68q68 0 118 157h326q50 -157 119 -157h67v-45q0 -13 -6.5 -20t-13.5 -8l-6 -1h-645 q-3 0 -7.5 1t-12 8t-7.5 20z" />
<glyph unicode="V" horiz-adv-x="1705" d="M203 0v1245h880l-145 -147h-588v-951h727v402l148 147v-696h-1022zM625 455l75 262l529 530q29 22 73.5 11t81.5 -48q37 -39 48.5 -82t-9.5 -73l-532 -531l-262 -73l-5 3zM705 580q1 4 15 -7.5t25.5 -25t8.5 -15.5l98 31h2q15 17 10 44t-28 52q-25 25 -53.5 31.5 t-43.5 -10.5h-2zM1284 1305l66 63q41 41 97.5 43.5t100.5 -37.5q42 -45 39.5 -101.5t-43.5 -98.5l-65 -64q2 3 4 8t5 20.5t0 32.5t-17 41t-39 48q-33 34 -70 45t-58 5z" />
<glyph unicode="W" horiz-adv-x="1826" d="M205 489v648q0 44 32 76t76 32h799q44 0 75.5 -32t31.5 -76v-152h-148v107h-719v-553h146v-156h-185q-44 0 -76 31.5t-32 74.5zM608 106v662q0 43 32 74.5t75 31.5h801q44 0 75 -31.5t31 -74.5v-662q0 -43 -31 -74.5t-75 -31.5h-801q-43 0 -75 31.5t-32 74.5zM756 147 h719v574h-719v-574z" />
<glyph unicode="X" horiz-adv-x="1333" d="M166 334l289 289l-289 288l209 207l289 -289l288 289l209 -207l-289 -288l289 -289l-209 -209l-288 289l-289 -289z" />
<glyph unicode="Y" horiz-adv-x="1658" d="M123 623q0 34 14.5 66.5t35.5 54.5t42.5 38.5t36.5 24.5l14 8h545q92 0 169 21t138 62.5t106.5 86.5t94.5 109q0 27 20 45t50 18t50.5 -18.5t20.5 -44.5v-934q0 -27 -20.5 -45.5t-50.5 -18.5t-50 18.5t-20 45.5q-49 60 -94.5 103t-106.5 81.5t-138 58t-169 19.5h-104 l229 -387l-139 -101q-28 -11 -51.5 -1.5t-40.5 30.5l-285 459h-154q-6 3 -15.5 9t-34 26t-43.5 42t-34.5 56t-15.5 68zM334 520h196q18 0 26 17t0.5 34t-26.5 17h-196q-21 0 -30 -17t0 -34t30 -17zM334 659h196q18 0 26 17t0.5 34t-26.5 17h-196q-21 0 -30 -17t0 -34t30 -17 zM838 514q278 0 485 -207v635q-204 -217 -485 -217v-211z" />
<glyph unicode="Z" horiz-adv-x="1533" d="M205 0v133h842v-133h-842zM205 295v133h1141v-133h-1141zM205 590v133h842v-133h-842zM205 885v133h1141v-133h-1141z" />
<glyph unicode="[" horiz-adv-x="1175" d="M82 543h344v661h319v-661h349l-504 -502z" />
<glyph unicode="\" horiz-adv-x="1800" d="M205 2v262h262v-262h-262zM205 375v266h262v-266h-262zM205 754v264h262v-264h-262zM582 2v262h264v-262h-264zM582 375v266h264v-266h-264zM582 754v264h264v-264h-264zM956 2v262h265v-262h-265zM956 377v266h265v-266h-265zM956 754v264h265v-264h-265zM1333 2v266 h262v-266h-262zM1333 377v266h262v-266h-262zM1333 754v264h262v-264h-262z" />
<glyph unicode="]" horiz-adv-x="1183" d="M82 702l504 502l508 -502h-344v-661h-320v661h-348z" />
<glyph unicode="^" horiz-adv-x="1458" d="M205 139q0 62 44 106t105 44q62 0 107 -44.5t45 -105.5q0 -62 -45 -105.5t-107 -43.5t-105.5 43t-43.5 106zM211 532v234q304 0 539 -221q106 -107 164.5 -250.5t58.5 -294.5h-236q0 226 -153 379q-74 74 -171 112.5t-202 40.5zM211 954v234h16q240 -6 449 -93t373 -251 q161 -161 252 -381.5t94 -462.5h-234v8q0 185 -72 361.5t-204 308.5q-134 134 -308.5 205.5t-365.5 70.5z" />
<glyph unicode="_" horiz-adv-x="2662" d="M264 0v811h2161v-811h-2161zM600 180q0 -25 16 -40t39 -15h209q27 0 44.5 14.5t17.5 40.5t-17.5 41t-44.5 15h-209q-23 0 -39 -15.5t-16 -40.5zM600 408q0 -25 16 -40.5t39 -15.5h209q27 0 44.5 15t17.5 41t-17.5 40.5t-44.5 14.5h-209q-23 0 -39 -15t-16 -40zM600 635 q0 -25 16 -40t39 -15h209q27 0 44.5 14.5t17.5 40.5t-17.5 40.5t-44.5 14.5h-209q-23 0 -39 -15t-16 -40zM1763 180q0 -26 17.5 -40.5t44.5 -14.5h209q24 0 39.5 14.5t15.5 40.5t-15.5 41t-39.5 15h-209q-27 0 -44.5 -15t-17.5 -41zM1763 408q0 -26 17.5 -41t44.5 -15h209 q24 0 39.5 15t15.5 41t-15.5 40.5t-39.5 14.5h-209q-27 0 -44.5 -14.5t-17.5 -40.5zM1763 635q0 -26 17.5 -40.5t44.5 -14.5h209q24 0 39.5 14.5t15.5 40.5t-15.5 40.5t-39.5 14.5h-209q-27 0 -44.5 -14.5t-17.5 -40.5z" />
<glyph unicode="`" horiz-adv-x="1562" d="M82 1309q3 192 137 323l64 -65q-109 -106 -109 -264q0 -156 109 -265l-62 -63q-136 136 -139 334zM240 57l454 1170l70 47h27l67 -47l455 -1170q18 -45 -10 -73.5t-70 -23t-57 43.5l-23 57h-754l-22 -57q-9 -24 -30 -35t-42.5 -8t-41 15t-26 33.5t2.5 47.5zM346 1305 q0 118 94 208l60 -61q-66 -63 -66 -154q0 -85 60 -145l-58 -57q-42 42 -66 97.5t-24 111.5zM428 135h279l-201 199zM535 410l67 -66l127 125l-123 123zM641 659l139 -137l140 137h-279zM653 291l127 -127l127 127l-127 127zM662 733h229l-115 297zM682 1370q0 38 28 66 t66 28q39 0 66.5 -27.5t27.5 -66.5t-27.5 -66.5t-66.5 -27.5q-38 0 -66 28t-28 66zM831 469l127 -125l62 59l-72 183zM854 135h270l-75 195zM1063 1149q65 62 65 156q0 83 -59 145l57 57q91 -101 91 -211q0 -116 -93 -206zM1280 1034q109 106 106 264q3 158 -106 267l61 59 q67 -66 102.5 -152.5t37.5 -179.5q-3 -192 -138 -321z" />
<glyph unicode="a" horiz-adv-x="1980" d="M205 260v758h217v223h1354v-1059q0 -72 -53 -127t-119 -55h-1176q-111 0 -167 62.5t-56 197.5zM315 260q0 -68 14.5 -103.5t37.5 -35.5q55 0 55 139v647h-107v-647zM502 111h1102q26 0 43.5 23.5t17.5 47.5v948h-1133v-870q0 -87 -30 -149zM709 285v57h260v-57h-260z M709 418v57h260v-57h-260zM709 555v57h260v-57h-260zM709 696v58h260v-58h-260zM748 907v78h682v-78h-682zM1071 338v416h436v-416h-436z" />
<glyph unicode="b" horiz-adv-x="1681" d="M199 735q0 158 91.5 291.5t240 208t315.5 74.5q266 0 459 -168q91 -79 139.5 -184t48.5 -222q0 -118 -52 -230.5t-145 -191.5q-120 -108 -285 -139t-323 16q-134 -161 -321 -161q-92 0 -125 20q-21 13 2 31q87 72 111 129t18 151q-174 147 -174 375z" />
<glyph unicode="c" horiz-adv-x="1730" d="M61 1022v180q0 44 32.5 76.5t76.5 32.5h365v8q0 33 23.5 56.5t57.5 23.5h19q33 0 56.5 -23.5t23.5 -56.5v-8h303v8q0 32 23 56t55 24h20q33 0 56.5 -23.5t23.5 -56.5v-8h365q44 0 76 -32.5t32 -76.5v-180q0 -44 -32 -76.5t-76 -32.5h-164v-780q0 -57 -37.5 -95t-97.5 -38 h-793q-56 0 -95.5 38.5t-39.5 94.5v780h-164q-44 0 -76.5 32.5t-32.5 76.5zM598 240q0 -31 20.5 -51.5t51.5 -20.5t52 20.5t21 51.5t-21 52t-52 21t-51.5 -21t-20.5 -52zM598 428q0 -31 20.5 -51.5t51.5 -20.5t52 20.5t21 51.5t-21 52.5t-52 21.5t-51.5 -21.5t-20.5 -52.5z M598 616q0 -31 20.5 -51t51.5 -20t52 20t21 51t-21 52.5t-52 21.5t-51.5 -21.5t-20.5 -52.5zM598 805q0 -31 20.5 -51.5t51.5 -20.5t52 20.5t21 51.5t-21 52.5t-52 21.5t-51.5 -21.5t-20.5 -52.5zM793 240q0 -31 20 -51.5t51 -20.5t52.5 20.5t21.5 51.5t-21.5 52t-52.5 21 t-51 -21t-20 -52zM793 428q0 -31 20 -51.5t51 -20.5t52.5 20.5t21.5 51.5t-21.5 52.5t-52.5 21.5q-30 0 -50.5 -21.5t-20.5 -52.5zM793 616q0 -31 20 -51t51 -20t52.5 20.5t21.5 50.5q0 31 -21.5 52.5t-52.5 21.5q-30 0 -50.5 -21.5t-20.5 -52.5zM793 805q0 -31 20 -51.5 t51 -20.5t52.5 20.5t21.5 51.5t-21.5 52.5t-52.5 21.5q-30 0 -50.5 -21.5t-20.5 -52.5zM987 240q0 -31 20.5 -51.5t51.5 -20.5t52.5 20.5t21.5 51.5t-21.5 52t-52.5 21t-51.5 -21t-20.5 -52zM987 428q0 -31 20.5 -51.5t51.5 -20.5t52.5 20.5t21.5 51.5t-21.5 52.5 t-52.5 21.5t-51.5 -21.5t-20.5 -52.5zM987 616q0 -31 20.5 -51t51.5 -20t52.5 20.5t21.5 50.5q0 31 -21.5 52.5t-52.5 21.5t-51.5 -21.5t-20.5 -52.5zM987 805q0 -31 20.5 -51.5t51.5 -20.5t52.5 20.5t21.5 51.5t-21.5 52.5t-52.5 21.5t-51.5 -21.5t-20.5 -52.5z" />
<glyph unicode="d" horiz-adv-x="1951" d="M205 254v600q0 53 36 90t91 37h157v193h56v210h864v-210h55v-193h160q50 0 86.5 -37.5t36.5 -89.5v-600q0 -52 -36.5 -89.5t-86.5 -37.5h-125l55 -250h-1132l45 250h-135q-55 0 -91 37t-36 90zM330 758q0 -36 26 -62t62 -26q37 0 63.5 25.5t26.5 62.5q0 35 -26.5 61.5 t-63.5 26.5q-35 0 -61.5 -26.5t-26.5 -61.5zM520 -47h930l-78 395h-792zM602 829h750v478h-750v-478zM707 137v58h227v-58h-227zM1030 137v58h227v-58h-227z" />
<glyph unicode="e" horiz-adv-x="1388" d="M123 -49l184 727l522 518q15 4 40.5 9t97 6t133.5 -15l-369 -365l-348 -229l-53 -291q88 -90 159 -159l289 55l260 377l342 342q19 -75 18 -136.5t-12 -101.5l-10 -39l-520 -520l-729 -184zM723 549l129 221l371 371q18 -11 36.5 -27.5t34.5 -35t27 -36.5l-371 -370 l-223 -127z" />
<glyph unicode="f" horiz-adv-x="1595" d="M66 0v117q37 19 156.5 56t228.5 68.5t116 34.5l2 74l31 8q12 116 12 134q-47 92 -57 145q-4 0 -11 1t-18.5 11t-13.5 27q-2 16 -3 48.5t-7 49.5q-4 21 8.5 39.5t26.5 13.5q-5 24 -10.5 60.5t-6.5 110t17 98.5q7 10 10 29t8 37t19.5 37t51.5 36t95 27q117 7 175 -4.5 t93.5 -52.5t65.5 -134q14 -54 12 -133t-12 -111q1 -1 7.5 0.5t13.5 -7t5 -25.5q-1 -8 -2 -23t-2 -25t-2.5 -26t-3 -25.5t-4.5 -23t-6.5 -19t-8.5 -13t-10.5 -6t-13.5 2.5q0 -15 -1.5 -37.5t-12 -65.5t-27.5 -55q-12 -102 6 -106h37q13 -37 21 -107q18 -5 47.5 -12.5 t107.5 -30t140 -42t118 -41.5t68 -36v-104h-1466z" />
<glyph unicode="g" horiz-adv-x="2422" d="M141 0q0 4 1.5 11.5t7.5 28.5t15.5 39t28 38.5t42.5 32.5q39 19 143 53t198.5 62.5t100.5 31.5l2 76l33 8q10 123 10 139q-47 99 -59 152q-5 0 -12 1t-20 12.5t-16 31.5q-1 13 -2 47.5t-6 52.5q-4 23 9 42.5t28 14.5q-5 25 -11 63t-7 115t18 105q108 150 338 191 q54 4 72 -2q12 -3 6 -12q-5 -7 -23 -25q5 -3 12.5 -8.5t29 -23.5t39.5 -37.5t37.5 -50t29.5 -61.5q17 -56 14.5 -137.5t-14.5 -116.5q1 -1 9 0.5t16 -7.5t6 -27q-10 -110 -19 -138q-13 -41 -37 -30q0 -15 -1.5 -38t-13 -67t-30.5 -57q-10 -109 8 -113h27q13 -87 33 -110 q100 -41 215 -68q71 -17 174 -14q3 9 19.5 41.5t22.5 66t5 93.5q0 24 -10 52t-20 44l-11 16q0 -2 -1.5 -5t-8.5 -8t-19 1q-17 9 -31.5 29t-19.5 40q-1 17 -12.5 44t-18.5 36q-7 15 2 33t35 21q-2 3 -3.5 8.5t-3.5 19t5 17.5h-4t-8.5 1.5t-9.5 5t-5 10t5 17.5q-3 1 -8.5 3.5 t-16.5 11t-15.5 19t0.5 27.5t25 36q-2 2 -4.5 5t-7.5 11.5t-5.5 15.5t5.5 14t21 9l-7.5 10t-12.5 23t-8.5 32t12.5 32.5t42 27.5q-2 5 -5 13.5t-9.5 32.5t-9.5 46.5t-1 50t12 47.5t33 35t58 17q41 5 76 -5t86 -37.5t71 -35.5q13 10 33.5 25t68 37.5t75.5 17.5 q84 -17 107 -87.5t-28 -142.5q33 9 53 -15.5t16 -60t-30 -55.5q4 -4 8.5 -11.5t5.5 -28t-14 -38.5l5 -7.5t8 -18t6 -25.5t-6.5 -25.5t-24.5 -21.5q-10 -41 -24 -59q26 3 34 -17q9 -17 8.5 -36t-14.5 -42q-8 -12 -33 -69q0 -1 -3.5 -12.5t-6.5 -17t-9 -12.5t-15.5 -6t-22.5 9 q-47 -58 -59 -140t18 -163l10 -19q26 -5 85 -17t94 -19t81 -17.5t79.5 -20.5t56.5 -20v-94h-2233z" />
<glyph unicode="h" horiz-adv-x="2041" d="M207 125v569q0 52 36.5 88.5t88.5 36.5h868q51 0 88 -36.5t37 -88.5v-569q0 -52 -37 -88.5t-88 -36.5h-868q-52 0 -88.5 36t-36.5 89zM1399 305v209l418 260v-729z" />
<glyph unicode="i" horiz-adv-x="1648" d="M39 1305q0 31 21.5 52t52.5 21h94q46 0 71.5 -4.5t47 -25t34 -44t38.5 -78.5q4 -8 6 -12.5t5.5 -12t6.5 -13.5h958q44 0 67 -23t23 -59v-383q0 -32 -21.5 -55.5t-53.5 -26.5l-828 -92q-35 -4 -49.5 -28t0.5 -47t53 -23h785q32 0 50 -21t18 -46t-18 -46t-50 -21h-809 q-44 0 -81.5 20t-61 51.5t-31 72t3.5 79t48 74t97 56.5l-256 561h-147q-31 0 -52.5 21.5t-21.5 52.5zM236 88q0 54 36.5 91.5t89.5 37.5q55 0 92.5 -37.5t37.5 -91.5q0 -53 -37.5 -90t-92.5 -37q-52 0 -89 37t-37 90zM461 1077l67 -143h244l-45 143h-266zM559 860l84 -186 l201 20l-53 166h-232zM801 1077l43 -143h203l-33 143h-213zM864 860l51 -158l185 19l-41 139h-195zM1087 1077l31 -143h234v143h-265zM1102 88q0 54 37.5 91.5t91.5 37.5t90.5 -37.5t36.5 -91.5q0 -53 -36.5 -90t-90.5 -37t-91.5 37t-37.5 90zM1135 860l32 -129l185 19v110 h-217z" />
<glyph unicode="j" horiz-adv-x="1622" d="M164 791q0 141 86 227t227 86q80 0 141.5 -27.5t93 -57t92.5 -101.5q9 -10 13 -15q82 94 111 120q82 72 195 80q17 1 34 1q141 0 227 -86t86 -227q0 -184 -161 -345l-492 -487l-489 487q-164 161 -164 345z" />
<glyph unicode="k" horiz-adv-x="1269" d="M61 0v78q73 48 342 110q6 24 21 52.5t23.5 64.5t7.5 101q0 24 -10.5 52t-20.5 44l-10 16q0 -2 -1.5 -5t-8.5 -8t-19 1q-17 9 -31.5 29t-19.5 40q-1 17 -12.5 44t-18.5 36q-7 15 2 33t35 21q-2 3 -3.5 8.5t-3.5 19t5 17.5h-4.5t-9 1.5t-9 5t-5 10t4.5 17.5q-3 1 -8.5 3.5 t-16 11t-15 19t0.5 27.5t25 36q-2 2 -4.5 5t-7.5 11.5t-6 15.5t5 14t21 9l-7.5 10t-12.5 23t-8 32t13 32.5t42 27.5q-2 5 -5 13.5t-9.5 32.5t-9.5 46.5t-1 50t12 47.5t33 35t58 17q41 5 76 -5t86 -37.5t71 -35.5q5 4 13 10t30.5 21t43.5 26t46 18.5t43 4.5 q84 -17 107.5 -87.5t-27.5 -142.5q33 9 53 -15.5t16 -60t-30 -55.5q4 -4 8.5 -11.5t5.5 -28t-14 -38.5l5 -7.5t8 -18t6 -25.5t-6.5 -25.5t-24.5 -21.5q-11 -41 -25 -59q27 3 35 -17q9 -17 8.5 -36t-14.5 -42q-8 -12 -33 -69q0 -1 -3.5 -12.5t-6.5 -17t-9 -12.5t-15.5 -6 t-22.5 9q-47 -58 -59 -140t18 -163l10 -19q26 -5 85.5 -17t93.5 -19t80 -17.5t79.5 -20.5t56.5 -20v-94h-1147z" />
<glyph unicode="l" horiz-adv-x="1636" d="M205 23v788q0 19 14 33t33 14h336q19 0 33 -14t14 -33v-53q45 29 86.5 78t68.5 96.5t48 95.5t30.5 74t10.5 33q19 80 64 124t110 44q77 0 138.5 -74t61.5 -207q0 -36 -13 -86t-34 -90h29q49 0 91 -12t78 -39t47 -71.5t-3 -109.5q22 -37 23.5 -79t-11.5 -72.5t-33 -48.5 q25 -58 10.5 -107.5t-55.5 -79.5q56 -176 -146 -210q-159 -27 -409 32q-152 36 -190 66l-2 2v-94q0 -20 -14 -35t-33 -15h-336q-19 0 -33 15t-14 35zM635 248q218 -109 504 -121q83 -2 126 39q34 34 7 65q-20 23 -68 33q-23 3 -23 18q1 12 17 13q86 0 113 43q20 31 -10 57 q-19 17 -54 21q-13 2 -18 8.5t0 12t18 5.5q55 0 79 31t5 62.5t-69 33.5q-11 1 -15.5 7t0 12t15.5 6q55 0 68 40q11 38 -21 69q-28 26 -74 26h-121q-30 0 -46.5 15.5t-16.5 37.5q0 20 43 106.5t43 131.5q0 72 -28 119t-56 47q-25 0 -40 -18t-18 -46q-12 -82 -68 -187 t-136.5 -194.5t-155.5 -122.5v-370z" />
<glyph unicode="m" horiz-adv-x="1861" d="M205 53v887l450 -434zM254 0l455 455q125 -118 145 -136q41 -37 73.5 -37t73.5 37l146 136l452 -455h-1345zM283 1018h1292l-647 -615zM1200 506l457 436v-893z" />
<glyph unicode="n" horiz-adv-x="1300" d="M139 463q0 194 121 334l6 258q0 155 111 266t266 111q157 0 268 -111t111 -266v-258q125 -144 125 -334q0 -137 -67.5 -253.5t-183.5 -184.5t-253 -68t-253 68t-183.5 184.5t-67.5 253.5zM297 428h143l19 35l-19 39h-143v-74zM326 322l34 -62l125 72l-4 39l-32 22z M328 606l123 -71l36 22l2 39l-127 72zM426 913q99 46 212.5 46.5t223.5 -46.5v142q0 90 -64.5 153.5t-154.5 63.5t-153.5 -63.5t-63.5 -153.5v-142zM438 180l62 -35l71 121l-20 37l-39 2zM442 745l72 -124l39 2l22 32l-71 127zM606 115h72v143l-37 18l-35 -18v-143zM610 664 l37 -19l37 19v143h-74v-143zM713 264l71 -121l64 35l-74 125l-39 -4zM717 653l22 -32l39 -3l72 123l-59 37zM801 324l127 -70l35 61l-127 72l-33 -22zM805 592l2 -39l33 -23l125 72l-35 62zM829 459l21 -35h141v72h-141z" />
<glyph unicode="o" horiz-adv-x="1847" d="M205 96v908q0 41 29 69.5t69 28.5h375v-148h-326v-807h1121v267h147v-318q0 -40 -28 -68t-68 -28h-1221q-40 0 -69 28t-29 68zM674 346q0 13 1 36t10.5 90t26.5 128t54.5 136.5t89 131.5t136 97t188.5 47l-72 291l567 -420l-567 -398l72 289q-9 0 -24 -0.5t-58.5 -8.5 t-83 -22.5t-89 -46.5t-85.5 -75t-62.5 -114.5t-29.5 -160.5h-74z" />
<glyph unicode="p" horiz-adv-x="2230" d="M164 870v148h897v282h553v-282h452v-148h-1902zM340 -2v813h1546v-813h-932v532h-278v-532h-336zM1282 397h199v289h-199v-289zM1554 397h199v289h-199v-289z" />
<glyph unicode="q" horiz-adv-x="1726" d="M137 1030v125q0 157 110.5 267t268.5 110q154 0 265.5 -110.5t111.5 -266.5v-233q96 41 203 41q137 0 252.5 -67.5t182 -183.5t66.5 -253q0 -209 -146 -355.5t-355 -146.5q-137 0 -253.5 67t-184.5 182.5t-68 252.5q0 98 38 190t105 164v346q0 92 -64 157.5t-153 65.5 q-92 0 -158.5 -65.5t-66.5 -157.5v-129q0 -37 -21.5 -60.5t-56.5 -23.5t-55.5 23.5t-20.5 60.5zM750 426h143l18 35l-18 39h-143v-74zM778 319l35 -61l125 72l-4 39l-33 22zM780 604l123 -72l37 23l2 39l-127 72zM891 178l61 -35l72 121l-20 37l-39 2zM895 743l72 -125l39 3 l22 32l-72 127zM1059 113h71v143l-36 18l-35 -18v-143zM1063 662l37 -19l37 19v143h-74v-143zM1165 262l72 -121l63 35l-73 125l-39 -4zM1169 651l23 -33l39 -2l72 123l-60 37zM1253 322l127 -70l35 61l-127 72l-33 -23zM1257 590l3 -39l32 -23l125 72l-35 62zM1282 457 l21 -35h141v72h-141z" />
<glyph unicode="r" horiz-adv-x="1615" d="M174 -41l115 399l680 680q48 39 127 9l-748 -748l-47 -149q23 -9 43 -29q9 -9 15.5 -20t8.5 -18l3 -7l153 47l750 747q26 -78 -10 -127l-680 -680l-404 -110q-9 -3 -6 6zM463 297l708 709q35 -18 62 -60l-711 -708l-57 2zM1053 1120l133 133q63 64 149 68.5t152 -57.5 q64 -68 60.5 -154.5t-66.5 -148.5l-131 -134q3 4 6 11.5t7 31.5t-0.5 49t-25 62.5t-57.5 73.5q-33 33 -68.5 51.5t-62.5 22t-49.5 2t-34.5 -6.5z" />
<glyph unicode="s" horiz-adv-x="1421" d="M111 76q-4 49 18 76l209 251l199 103q-59 57 -93.5 132t-42.5 155q-7 91 22.5 177.5t85.5 152.5t136.5 109.5t171.5 51.5q121 10 231 -42.5t181 -151.5t82 -220q16 -190 -103 -333q-74 -87 -177.5 -130t-220 -31.5t-218.5 81.5l-66 -211l-211 -252q-21 -27 -71 -31 q-49 -4 -88.5 30.5t-44.5 82.5zM578 807q10 -120 98 -193q93 -75 207 -65q113 11 187.5 101t64.5 206q-6 73 -50 134t-111.5 93t-139.5 25q-75 -6 -136.5 -49.5t-93.5 -110.5t-26 -141z" />
<glyph unicode="t" horiz-adv-x="1812" d="M162 125q5 2 31 0t79 5t107.5 17.5t116 39t104.5 67.5q-9 1 -23.5 4t-54 17.5t-73 35.5t-68 63.5t-51.5 96.5h151q-11 3 -29 8.5t-64 30t-81.5 56t-64.5 89t-29 125.5q82 -31 162 -37q-10 7 -25 20t-49.5 55.5t-54.5 87t-20 111.5t34 132q5 -6 14 -17t41.5 -43t68 -61 t92.5 -65.5t117 -63t139.5 -46t160.5 -22.5q-26 69 -12 138t51.5 124t106 89.5t151.5 34.5q123 0 199 -82q7 1 37 5t51 7.5t51 10t57 16t49 22.5l2 -4l-137 -148q108 19 176 29l2 -4l-178 -166q0 -11 -1 -28t-1 -23q-2 -63 -6 -107.5t-20.5 -124t-43.5 -145t-79.5 -147 t-124.5 -152.5q-77 -78 -173 -126.5t-189 -64t-189.5 -13t-179 20.5t-152.5 42.5t-115 48t-63 41.5z" />
<glyph unicode="u" horiz-adv-x="1662" d="M207 131l221 219l-139 139h405v-405l-139 141l-221 -223zM207 1120l127 125l221 -223l139 141v-405h-405l139 141zM963 84v405h405l-139 -139l221 -219l-125 -129l-223 223zM963 758v405l139 -139l223 221l125 -125l-221 -221l139 -141h-405z" />
<glyph unicode="v" horiz-adv-x="1665" d="M205 0v420l145 -146l230 232l133 -133l-232 -228l146 -145h-422zM205 819v422h422l-146 -145l232 -232l-133 -129l-230 234zM940 373l131 133l232 -232l145 146v-420h-422l145 145zM940 864l231 232l-145 145h422v-422l-145 146l-232 -230z" />
<glyph unicode="w" horiz-adv-x="1574" d="M123 625q0 135 52.5 257.5t141.5 211t212 140.5t259 52q137 0 260 -52t211.5 -140.5t140.5 -211t52 -257.5q0 -137 -52 -260.5t-140.5 -212t-211.5 -141t-260 -52.5q-136 0 -259 52.5t-212 141t-141.5 212t-52.5 260.5zM250 549q56 -64 217 -94q-12 77 -12 163 q0 55 6 113q-131 25 -193 51q-32 -119 -18 -233zM276 440q51 -124 130 -198q65 -70 174 -117q-68 95 -99 248q-139 30 -205 67zM297 850q58 -25 172 -47q36 204 123 321q-63 -30 -105 -55.5t-81 -64.5q-69 -69 -109 -154zM528 618q0 -89 13 -178q99 -17 207 -20v289 q-125 3 -218 14q0 -19 -1 -53t-1 -52zM539 793q91 -13 209 -13v381q-18 0 -54 -28q-53 -41 -93.5 -132.5t-61.5 -207.5zM557 360q12 -40 29.5 -83t42 -89t56 -75t63.5 -29v260q-34 1 -191 16zM825 84q32 0 64 29t56.5 75.5t41.5 88.5t29 83q-156 -15 -191 -16v-260zM825 420 q104 3 207 18q12 66 12 180q0 68 -2 103q-106 -9 -217 -12v-289zM825 780q95 0 209 13q-21 116 -61.5 207.5t-93.5 132.5q-36 28 -54 28v-381zM981 1124q87 -117 123 -321q114 22 172 47q-40 85 -109 154q-39 39 -81 64.5t-105 55.5zM993 125q112 48 176 117q79 74 123 190 q-74 -35 -198 -61q-37 -157 -101 -246zM1108 455q161 30 217 94q14 114 -18 233q-62 -26 -193 -51q6 -59 6 -113q0 -86 -12 -163z" />
<glyph unicode="x" horiz-adv-x="1574" d="M123 625q0 135 52.5 257.5t141.5 211t212 140.5t259 52q137 0 260 -52t211.5 -140.5t140.5 -211t52 -257.5q0 -137 -52 -260.5t-140.5 -212t-211.5 -141t-260 -52.5q-136 0 -259 52.5t-212 141t-141.5 212t-52.5 260.5zM444 420l138 -139l206 206l203 -204l139 137 l-204 205l204 204l-139 138l-203 -205l-206 207l-138 -140l207 -204z" />
<glyph unicode="y" horiz-adv-x="1456" d="M225 403q-93 95 -126.5 222t0 254.5t126.5 222.5q96 95 223 128.5t254.5 0t223.5 -128.5q88 -88 120.5 -213t5.5 -246.5t-104 -210.5l189 -65l211 -213q28 -35 24.5 -81.5t-37.5 -80.5q-32 -32 -77 -35t-82 23l-213 213l-66 184q-90 -76 -211.5 -102t-246.5 7t-214 121z M317 496q107 -106 257.5 -106t256.5 106q107 107 107 257.5t-107 256.5q-106 107 -256.5 107t-257.5 -107q-106 -106 -106 -256.5t106 -257.5zM356 705v104h164v166h111v-166h162v-104h-162v-164h-111v164h-164z" />
<glyph unicode="z" horiz-adv-x="1456" d="M227 403q-95 95 -128.5 222t0 254.5t128.5 222.5t222 128.5t254.5 0t222.5 -128.5q88 -88 120.5 -213t6 -246.5t-102.5 -210.5l187 -65l211 -213q28 -35 24.5 -81.5t-37.5 -80.5q-32 -32 -77 -35t-82 23l-213 213l-66 184q-90 -76 -211.5 -102t-246 7t-212.5 121z M317 496q107 -106 258.5 -106t255.5 106q107 106 107 257t-107 257q-104 107 -255.5 107t-258.5 -107q-106 -106 -106 -257t106 -257zM356 680v156h437v-156h-437z" />
<glyph unicode="{" d="M123 621q0 136 52.5 259t141.5 212t212 141.5t259 52.5q181 0 334 -88.5t242.5 -242t89.5 -334.5q0 -180 -89.5 -333.5t-243 -243t-333.5 -89.5q-181 0 -334.5 89.5t-242 242.5t-88.5 334zM270 621q0 -141 69 -260.5t188.5 -189t260.5 -69.5t260.5 69.5t189 189 t69.5 260.5t-69.5 260.5t-189 188.5t-260.5 69q-215 0 -366.5 -151.5t-151.5 -366.5zM358 625q0 15 12 27t27 12t27 -12t12 -27t-12 -27t-27 -12t-27 12t-12 27zM475 350q0 15 12 27t27 12t27 -12t12 -27t-12 -27t-27 -12t-27 12t-12 27zM487 821q-31 34 -14.5 74t53.5 48 t68 -21l213 -234h178q32 0 50 -23t18 -50.5t-18 -50.5t-50 -23h-209q-32 0 -53 24zM745 231q0 15 12 27t27 12t27 -12t12 -27t-12 -26.5t-27 -11.5t-27 11.5t-12 26.5zM754 1020q0 15 12 27t27 12t26.5 -12t11.5 -27t-11.5 -27t-26.5 -12t-27 12t-12 27zM1026 901 q0 15 12 27t27 12t27 -12t12 -27t-12 -27t-27 -12t-27 12t-12 27zM1028 352q0 15 12 27t27 12t27 -12t12 -27t-12 -27t-27 -12t-27 12t-12 27zM1143 625q0 15 12 27t27 12t27 -12t12 -27t-12 -27t-27 -12t-27 12t-12 27z" />
<glyph unicode="|" horiz-adv-x="485" d="M205 -508v2050h76v-2050h-76z" />
<glyph unicode="}" d="M123 621q0 136 52.5 259t141.5 212t212 141.5t259 52.5q181 0 334 -88.5t242.5 -242t89.5 -334.5q0 -180 -89.5 -333.5t-243 -243t-333.5 -89.5q-181 0 -334.5 89.5t-242 242.5t-88.5 334zM166 1219q-11 48 27.5 93.5t142.5 106.5q104 59 168 69.5t96 -22.5l78 -108 q-275 -49 -463 -262zM270 621q0 -141 69 -260.5t188.5 -189t260.5 -69.5t260.5 69.5t189 189t69.5 260.5t-69.5 260.5t-189 188.5t-260.5 69q-215 0 -366.5 -151.5t-151.5 -366.5zM596 535l123 106l-2 324q5 42 43.5 57.5t74 -1t33.5 -52.5v-328q0 -48 -6 -63t-26 -31 l-146 -129q-21 -15 -44.5 -15.5t-41 14t-28 33t-6 42.5t25.5 43zM895 1356l80 108q66 66 262 -47q105 -62 143 -107t29 -93l-49 -123q-192 214 -465 262z" />
<glyph unicode="~" horiz-adv-x="1615" d="M176 575l1317 732l-619 -1387l-73 658z" />
<glyph unicode="&#xa1;" horiz-adv-x="1501" d="M209 164v1106q0 68 47.5 116t114.5 48h719q67 0 114 -48t47 -116v-1106q0 -68 -47 -116t-114 -48h-719q-67 0 -114.5 48t-47.5 116zM315 254h830v1003h-830v-1003zM659 129q0 -29 20.5 -49.5t49.5 -20.5t49.5 20.5t20.5 49.5t-20.5 49.5t-49.5 20.5t-49.5 -20.5 t-20.5 -49.5z" />
<glyph unicode="&#xa2;" horiz-adv-x="1972" d="M205 66v827q0 53 36.5 89t88.5 36h1200q53 0 90 -36.5t37 -88.5v-827q0 -26 -19 -45t-45 -19h-1327q-26 0 -43.5 18.5t-17.5 45.5zM385 1092q0 5 0.5 14t6.5 31t16 39t32 31t52 14h364q29 0 50.5 -13.5t31.5 -32.5t16 -37.5t6 -31.5l1 -14h-576z" />
<glyph unicode="&#xa3;" horiz-adv-x="2738" d="M63 430v5t2 3.5t3 3.5v2l671 609q150 127 157 -47q4 -89 -30 -240q29 7 78.5 18t179 29t232.5 18q105 0 227.5 -13.5t192.5 -26.5l71 -13q-60 265 -6 323q38 42 133 -36l670 -610l2 -2q6 -3 6 -13q-3 -6 -10 -8q0 -4 -4 0l-877 -227q-146 -29 -137 55q10 83 158 258 q-240 47 -426 47q-99 0 -205.5 -13.5t-163.5 -27.5l-57 -14q182 -211 158 -287q-17 -52 -136 -28l-878 225q-2 0 -2 2q-9 0 -9 8z" />
<glyph unicode="&#xa5;" horiz-adv-x="1554" d="M180 1266q-13 13 -14.5 30.5t7.5 31.5t22 23.5t30.5 8t32.5 -16.5l1149 -1148q23 -20 13 -50.5t-37 -39.5t-54 12zM309 723v225q0 21 17.5 33t38 12t38 -12t17.5 -33v-225q0 -129 95 -222t224 -93h33q84 0 160 45l82 -82q-85 -58 -195 -74h-4v-186h256q26 0 41 -17.5 t15 -38t-15 -38t-41 -17.5h-635q-26 0 -41 17.5t-15 38t15 38t41 17.5h254v186q-160 22 -270.5 141.5t-110.5 284.5zM506 729v152l362 -365q-41 -20 -129 -20q-96 0 -164.5 68.5t-68.5 164.5zM506 1159v121q17 0 28 11.5t11 27.5q0 17 -10.5 28t-26.5 13q6 60 40 109t87 75 q0 -15 12 -25t27 -10q16 0 27.5 11t11.5 28q0 13 -6 19q48 11 100 2q-6 -9 -6 -21q0 -17 11.5 -28t27.5 -11q15 0 27 10t12 25q53 -26 87 -75t40 -109q-16 -2 -26.5 -13t-10.5 -28q0 -16 11 -27.5t28 -11.5v-150q-17 0 -28 -10.5t-11 -27.5q0 -16 11 -27.5t28 -11.5v-324 q0 -26 -11 -63zM551 1206q0 -17 11 -28t28 -11q16 0 27.5 11t11.5 28q0 15 -12 27t-27 12q-17 0 -28 -11.5t-11 -27.5zM571 1434q0 -16 11 -27.5t28 -11.5q15 0 27 12t12 27q0 17 -11.5 28t-27.5 11q-17 0 -28 -11t-11 -28zM635 1092q0 -17 11 -28t28 -11q16 0 27.5 11 t11.5 28t-11.5 27.5t-27.5 10.5q-17 0 -28 -10.5t-11 -27.5zM635 1319q0 -16 11 -27.5t28 -11.5q15 0 27 12t12 27q0 17 -12 29t-27 12q-17 0 -28 -12t-11 -29zM717 1206q0 -17 11.5 -28t27.5 -11q17 0 29 11t12 28q0 15 -12 27t-29 12q-15 0 -27 -12t-12 -27zM717 1434 q0 -15 12 -27t27 -12q17 0 29 12t12 27q0 17 -12 28t-29 11q-16 0 -27.5 -11t-11.5 -28zM801 1092q0 -17 11.5 -28t27.5 -11q17 0 28 11t11 28t-11 27.5t-28 10.5q-16 0 -27.5 -10.5t-11.5 -27.5zM801 1319q0 -15 12 -27t27 -12q17 0 28 11.5t11 27.5q0 17 -11 29t-28 12 q-15 0 -27 -12t-12 -29zM864 1434q0 -16 11 -27.5t28 -11.5t28 11.5t11 27.5q0 17 -11 28t-28 11t-28 -11t-11 -28zM885 1206q0 -17 11 -28t28 -11t28 11t11 28q0 16 -11 27.5t-28 11.5t-28 -11.5t-11 -27.5zM1061 602q24 67 24 121v225q0 27 27.5 38t55.5 0t28 -38v-225 q0 -111 -53 -203z" />
<glyph unicode="&#xa7;" horiz-adv-x="1943" d="M117 623q0 8 8 12q0 2 2 2l887 477q166 80 161 -47q-4 -98 -102 -297h557q62 0 105 -43t43 -104t-43 -104.5t-105 -43.5h-557q140 -282 90 -354q-32 -46 -149 10l-887 477l-4 4q-6 3 -6 11z" />
<glyph unicode="&#xa8;" d="M123 621q0 137 55 263.5t152 217.5q26 26 57.5 28.5t55 -14.5t39.5 -42t12.5 -56.5t-29.5 -56.5q-146 -140 -146 -340q0 -127 62.5 -235t170.5 -171t236 -63q127 0 235 63t171 171t63 235q0 201 -145 340q-28 25 -32 56.5t12 56.5t41 41.5t57 14t57 -27.5 q100 -97 153.5 -222.5t53.5 -258.5q0 -132 -51.5 -254.5t-142.5 -216.5q-95 -95 -219 -145t-253 -50q-134 0 -256 51t-215 144q-96 96 -145 218t-49 253zM690 621v700q0 46 31 71.5t67.5 25t67.5 -26.5t31 -70v-700q0 -36 -20.5 -60.5t-49.5 -30t-57.5 0t-49 30t-20.5 60.5z " />
<glyph unicode="&#xa9;" horiz-adv-x="1423" d="M76 621l243 243v-168h318v318h-168l242 243l243 -243h-168v-318h318v168l244 -243l-244 -242v168h-318v-318h168l-243 -243l-242 243h168v318h-318v-168z" />
<glyph unicode="&#xaa;" horiz-adv-x="1486" d="M207 121v575q0 51 39 87t94 36h22v242q0 157 111 268t266 111q158 0 268.5 -111t110.5 -268v-242h25q54 0 93.5 -36t39.5 -87v-575q0 -49 -39.5 -85t-93.5 -36h-803q-55 0 -94 35.5t-39 85.5zM520 819h438v242q0 92 -64 155.5t-155 63.5q-90 0 -154.5 -63.5t-64.5 -155.5 v-242z" />
<glyph unicode="&#xab;" horiz-adv-x="1327" d="M160 211v846h176v-416l794 403v-843l-794 399v-389h-176z" />
<glyph unicode="&#xac;" horiz-adv-x="2480" d="M133 1542q0 7 -0.5 11.5t3 10t6 9t7.5 8t8 7t7.5 5.5t5.5 4q31 20 79 35t77 20t34 5q37 0 67 -8.5t56 -23t60.5 -49t67 -71.5t87.5 -106q47 -58 102 -96t110.5 -59t111 -38.5t121 -49t123.5 -77.5q90 -71 149.5 -131t108 -135t84 -159.5t75.5 -211.5q25 -78 67.5 -143.5 t92 -110t113.5 -79.5t122 -55.5t127.5 -35t120 -20.5t109.5 -10q12 0 16.5 -7t-0.5 -14.5t-16 -7.5q-134 0 -265 12.5t-234 33t-196 44.5t-160 48.5t-116 45t-74 32.5l-24 13l-43 -188h-164v23q0 13 10.5 22.5t22.5 9.5q31 0 31 111q0 20 -18.5 57t-37.5 65l-18 27l-41 -209 l-80 -106h-135v23q0 13 10.5 22.5t22.5 9.5q15 0 24 8t13.5 19t14 35.5t19.5 44.5q5 18 -8 76.5t-27 139t-10 142.5q-161 150 -221 291q-21 -57 -52 -78.5t-95 -21.5q-31 0 -41 2q-22 0 -30 17.5t2 35.5t32 18q65 -4 74 0q28 6 47 70h-15q-34 0 -59.5 9t-61.5 34 q-14 12 -10.5 29.5t17 23.5t30.5 -4q28 -20 49.5 -27t53.5 -4q7 0 10 3q3 16 8 65q-2 17 -4.5 48.5t-4.5 47t-7.5 36.5t-14.5 36q-121 217 -215 299q-42 38 -110 47q-190 7 -201 45z" />
<glyph unicode="&#xad;" horiz-adv-x="1114" d="M111 225l440 774l444 -774h-884z" />
<glyph unicode="&#xae;" horiz-adv-x="2377" d="M250 483l430 797v4q8 4 12 4q7 0 10 -6l3 -2l430 -797q73 -151 -44 -146q-88 4 -266 91v-336q0 -56 -38.5 -94.5t-94.5 -38.5t-94.5 38.5t-38.5 94.5v336q-260 -127 -321 -77q-37 31 12 132zM1233 764q-74 152 44 146q87 -4 265 -91v336q0 55 39 94t94 39t94 -39t39 -94 v-336q258 126 320 77q39 -32 -10 -134l-430 -795q0 -1 -1 -2t-1 -2q-8 -4 -11 -4q-9 0 -12 6v2z" />
<glyph unicode="&#xb0;" horiz-adv-x="1624" d="M190 98q0 75 63.5 129t152.5 54q46 0 92 -17v578l123 -123v-629q0 -73 -67.5 -123.5t-147.5 -50.5q-89 0 -152.5 53.5t-63.5 128.5zM207 1192q-17 17 -15 39.5t17 36.5t35.5 18t40.5 -16l1149 -1149q23 -20 13 -50.5t-37 -39.5t-54 12zM498 1118v10q0 25 15 45.5t38 26.5 l686 197q34 6 63 -15t29 -57v-924q-3 -42 -29 -86l-262 263q42 10 76 10q44 0 90 -17v519l-530 -148zM899 406q0 20 2 30l213 -213q-89 0 -152 54t-63 129z" />
<glyph unicode="&#xb1;" horiz-adv-x="1234" d="M211 723v225q0 21 17.5 33t38 12t38 -12t17.5 -33v-225q0 -129 95 -222t224 -93h35q127 0 219 93t92 222v225q0 27 27.5 38t55.5 0t28 -38v-225q0 -158 -106 -279t-271 -147v-186h252q26 0 41 -17.5t15 -38t-15 -38t-41 -17.5h-635q-26 0 -41 17.5t-15 38t15 38t41 17.5 h254v186q-160 22 -270.5 141.5t-110.5 284.5zM408 729v324q17 0 27.5 11.5t10.5 27.5t-10.5 27t-27.5 11v150q17 0 27.5 11.5t10.5 27.5q0 17 -10.5 28t-25.5 13q6 60 40 109t87 75q0 -15 11.5 -25t26.5 -10q16 0 27.5 11t11.5 28q0 13 -6 19q47 8 101 2q-7 -11 -7 -21 q0 -17 11.5 -28t27.5 -11q15 0 27 10t12 25q53 -26 87 -75t40 -109q-16 -2 -26.5 -13t-10.5 -28q0 -16 11 -27.5t28 -11.5v-150q-17 0 -28 -10.5t-11 -27.5q0 -16 11 -27.5t28 -11.5v-324q0 -97 -68 -165t-165 -68h-35q-96 0 -164.5 68.5t-68.5 164.5zM453 1206 q0 -17 11 -28t28 -11q15 0 26.5 11t11.5 28q0 15 -11.5 27t-26.5 12q-17 0 -28 -11.5t-11 -27.5zM473 1434q0 -16 11 -27.5t28 -11.5q15 0 27 12t12 27q0 17 -11.5 28t-27.5 11q-17 0 -28 -11t-11 -28zM537 1092q0 -17 10.5 -28t27.5 -11q16 0 27.5 11t11.5 28t-11.5 27.5 t-27.5 10.5q-17 0 -27.5 -10.5t-10.5 -27.5zM537 1319q0 -16 10.5 -27.5t27.5 -11.5q15 0 27 12t12 27q0 17 -12 29t-27 12q-17 0 -27.5 -11.5t-10.5 -29.5zM618 1206q0 -17 11.5 -28t27.5 -11q17 0 29 11t12 28q0 15 -12 27t-29 12q-15 0 -27 -12t-12 -27zM618 1434 q0 -15 12 -27t27 -12q17 0 29 12t12 27q0 17 -12 28t-29 11q-16 0 -27.5 -11t-11.5 -28zM702 1092q0 -17 11.5 -28t27.5 -11q17 0 28 11t11 28t-11 27.5t-28 10.5q-16 0 -27.5 -10.5t-11.5 -27.5zM702 1319q0 -15 12 -27t27 -12q17 0 28 11.5t11 27.5q0 17 -11 29t-28 12 q-15 0 -27 -12t-12 -29zM766 1434q0 -16 11 -27.5t28 -11.5t28 11.5t11 27.5q0 17 -11 28t-28 11t-28 -11t-11 -28zM786 1206q0 -17 11 -28t28 -11t28 11t11 28q0 16 -11 27.5t-28 11.5t-28 -11.5t-11 -27.5z" />
<glyph unicode="&#xb4;" horiz-adv-x="1085" d="M106 186v432l148 -149l156 156l135 -136l-156 -155l150 -148h-433zM545 760l153 151l-147 150h430v-430l-150 147l-151 -153z" />
<glyph unicode="&#xb5;" horiz-adv-x="1695" d="M227 514q0 70 47.5 118t118.5 48q69 0 115.5 -48.5t46.5 -117.5t-46.5 -117.5t-115.5 -48.5q-71 0 -118.5 48t-47.5 118zM684 514q0 69 48.5 117.5t117.5 48.5t117.5 -48.5t48.5 -117.5t-48.5 -117.5t-117.5 -48.5t-117.5 48.5t-48.5 117.5zM1143 514q0 69 47.5 117.5 t116.5 48.5q70 0 118 -48.5t48 -117.5t-48 -117.5t-118 -48.5q-69 0 -116.5 48.5t-47.5 117.5z" />
<glyph unicode="&#xb6;" horiz-adv-x="1349" d="M225 483l430 797v4q8 4 13 4q7 0 10 -6l2 -2l430 -797q74 -152 -44 -146q-87 4 -265 91v-336q0 -56 -38.5 -94.5t-94.5 -38.5t-94.5 38.5t-38.5 94.5v336q-256 -125 -320 -78q-41 30 10 133z" />
<glyph unicode="&#xb7;" horiz-adv-x="1456" d="M150 461v319h661v348l502 -503l-502 -508v344h-661z" />
<glyph unicode="&#xba;" horiz-adv-x="1550" d="M203 238v1007h852v-188h-111v78h-631v-787h84v-110h-194zM471 0v1008h879v-1008h-879zM582 111h657v786h-657v-786zM758 301v55h301v-55h-301zM758 465v55h301v-55h-301zM758 629v55h301v-55h-301z" />
<glyph unicode="&#xbb;" horiz-adv-x="1327" d="M160 213v844l794 -400v390h176v-846h-176v415z" />
<glyph unicode="&#xbf;" d="M123 621q0 168 77.5 313t212.5 236.5t300 109.5v72q-23 3 -38.5 20.5t-15.5 40.5v51q0 26 18.5 45t43.5 19h129q26 0 44.5 -19t18.5 -45v-51q0 -23 -15 -40.5t-38 -20.5v-70q194 -21 344 -143l51 49q-14 19 -12 42t19 40l43 45q19 19 45 19t45 -19l90 -92q19 -19 19 -44 t-19 -44l-45 -45q-15 -15 -38 -17t-42 10l-51 -49q145 -185 145 -413q0 -180 -89.5 -333.5t-243 -243t-333.5 -89.5q-181 0 -334.5 89.5t-242 242.5t-88.5 334zM270 621q0 -141 69 -260.5t188.5 -189t260.5 -69.5t260.5 69.5t189 189t69.5 260.5t-69.5 260.5t-189 188.5 t-260.5 69q-215 0 -366.5 -151.5t-151.5 -366.5zM356 623q0 15 12 27t27 12t27 -12t12 -27t-12 -27t-27 -12t-27 12t-12 27zM475 893q0 15 12 27t27 12t27 -12t12 -27t-12 -27t-27 -12t-27 12t-12 27zM477 340q0 15 12 27t27 12t27 -12t12 -27t-12 -27t-27 -12t-27 12 t-12 27zM643 659q17 59 69.5 89.5t112.5 15.5l27 -10l235 198l27 -26l-194 -242q22 -49 10 -102q-17 -59 -69.5 -89.5t-112.5 -15.5q-59 17 -89.5 69.5t-15.5 112.5zM750 225q0 15 11.5 27t26.5 12t27 -12t12 -27t-12 -27t-27 -12t-26.5 12t-11.5 27zM750 1010q0 15 11.5 27 t26.5 12t27 -12t12 -27t-12 -27t-27 -12t-26.5 12t-11.5 27zM1026 342q0 15 12 27t27 12t27 -12t12 -27t-12 -27t-27 -12t-27 12t-12 27zM1145 614q0 15 12 27t27 12t27 -12t12 -27t-12 -27t-27 -12t-27 12t-12 27z" />
<glyph unicode="&#xc0;" horiz-adv-x="1984" d="M205 211v844l796 -402v402l836 -420l-836 -424v403z" />
<glyph unicode="&#xc3;" horiz-adv-x="1982" d="M147 631l836 424v-404l797 404v-844l-797 401v-401z" />
<glyph unicode="&#xc4;" horiz-adv-x="1824" d="M102 618q0 31 21.5 52.5t52.5 21.5h72q26 233 192 398.5t398 191.5v72q0 31 21 52t52 21t52.5 -21t21.5 -52v-74q230 -25 395.5 -190.5t190.5 -397.5h76q31 0 52 -21.5t21 -52.5q0 -30 -21.5 -51.5t-51.5 -21.5h-76q-25 -230 -190.5 -395.5t-395.5 -190.5v-76 q0 -29 -21.5 -51t-52.5 -22q-30 0 -51.5 21.5t-21.5 51.5v74q-232 26 -398 192t-192 396h-72q-30 0 -52 21.5t-22 51.5zM395 545q25 -169 149 -291.5t294 -147.5v220q0 31 21 52t52 21t52.5 -21t21.5 -52v-220q169 25 291 147.5t147 291.5h-219q-30 0 -52 21.5t-22 51.5 q0 31 21.5 52.5t52.5 21.5h219q-23 172 -145.5 295t-292.5 148v-224q0 -29 -21.5 -51t-52.5 -22q-30 0 -51.5 21.5t-21.5 51.5v224q-172 -25 -296 -148.5t-147 -294.5h223q31 0 52.5 -21.5t21.5 -52.5q0 -30 -22 -51.5t-52 -21.5h-223z" />
<glyph unicode="&#xc5;" horiz-adv-x="1970" d="M244 285q3 71 31 137t77 115l260 260q60 57 129 82q-74 -127 -59 -283l-195 -195q-52 -51 -56.5 -126t40.5 -119q45 -45 120.5 -41t127.5 55l260 260q33 33 46 70.5t8.5 67t-13.5 55t-19 39.5l-10 14l135 133q103 -115 97 -260q-3 -71 -32 -136.5t-79 -115.5l-262 -260 q-49 -49 -109 -77t-131.5 -33.5t-148.5 18.5q-69 27 -121.5 78t-77.5 122q-24 72 -18 140zM770 526q-33 102 -8.5 206t100.5 186l262 260q44 46 106.5 75.5t135 35.5t145.5 -21q68 -24 122.5 -76.5t78.5 -122.5q17 -56 19 -112t-11.5 -105.5t-38 -93t-59.5 -80.5l-262 -260 q-61 -58 -127 -82q71 125 59 280l195 195q52 51 56 127t-42 121q-44 44 -119 40t-127 -55l-260 -262q-24 -24 -37.5 -50t-16 -49t0 -45.5t9.5 -40t14 -31t12 -20.5l6 -7l-135 -136q-53 56 -78 123z" />
<glyph unicode="&#xc6;" horiz-adv-x="1665" d="M246 0v113h262v-113h-262zM246 301v113h262v-113h-262zM246 604v113h262v-113h-262zM246 905v113h262v-113h-262zM700 0v113h263v-113h-263zM700 301v113h263v-113h-263zM700 604v113h263v-113h-263zM700 905v113h263v-113h-263zM1157 0v113h262v-113h-262zM1157 301v113 h262v-113h-262zM1157 604v113h262v-113h-262zM1157 905v113h262v-113h-262z" />
<glyph unicode="&#xc7;" horiz-adv-x="1695" d="M88 752l156 -23q37 239 222.5 398t434.5 159q181 0 334 -88.5t242.5 -242t89.5 -334.5q0 -180 -89.5 -333.5t-243 -243t-333.5 -89.5q-136 0 -258 52t-213 145l102 102q72 -71 168 -111.5t201 -40.5q141 0 260.5 69.5t188.5 189t69 260.5q0 215 -151.5 366.5 t-366.5 151.5q-188 0 -331.5 -116.5t-178.5 -295.5l166 25l-235 -330zM745 498l64 176q14 31 35 39l301 125q30 13 56.5 -0.5t37.5 -39t3 -54t-38 -42.5l-266 -106l-55 -150q-9 -27 -30 -39t-42 -7.5t-40.5 17t-26.5 35t1 46.5z" />
<glyph unicode="&#xc9;" horiz-adv-x="1568" d="M205 295v133h1141v-133h-1141zM205 885v133h1141v-133h-1141zM504 0v133h842v-133h-842zM504 590v133h842v-133h-842z" />
<glyph unicode="&#xcc;" horiz-adv-x="1292" d="M168 477l496 498l497 -498l-209 -209l-288 289l-289 -289z" />
<glyph unicode="&#xce;" horiz-adv-x="1292" d="M311 334l289 289l-289 288l209 207l498 -495l-498 -498z" />
<glyph unicode="&#xcf;" horiz-adv-x="1292" d="M168 766l209 209l289 -289l288 289l207 -209l-495 -498z" />
<glyph unicode="&#xd1;" horiz-adv-x="1552" d="M205 295v133h1141v-133h-1141zM266 885v133h1018v-133h-1018zM416 590v133h719v-133h-719zM477 0v133h596v-133h-596z" />
<glyph unicode="&#xd3;" horiz-adv-x="1292" d="M311 621l498 497l209 -209l-289 -288l289 -289l-209 -207z" />
<glyph unicode="&#xd5;" horiz-adv-x="1142" d="M203 211v846h258v-846h-258zM684 211v846h258v-846h-258z" />
<glyph unicode="&#xd6;" horiz-adv-x="1593" d="M184 178q0 92 68 160l614 616q46 44 112 44t112 -44q44 -47 41.5 -102.5t-46.5 -99.5l-329 -322q-21 -20 -47 -11t-32.5 32.5t11.5 46.5l324 311q12 13 12 33t-12 32q-14 14 -34 14t-32 -14l-616 -614q-35 -36 -34.5 -83t34.5 -81q33 -36 82.5 -34.5t79.5 34.5l798 799 q58 57 58 138t-58 138q-57 57 -138 57t-138 -57l-617 -610q-15 -15 -32.5 -17t-31 6.5t-22 21.5t-6.5 30.5t17 32.5l614 614q89 89 216 89t216 -89q91 -89 91 -216t-91 -218l-797 -797q-67 -67 -159 -67q-93 0 -160.5 68.5t-67.5 158.5z" />
<glyph unicode="&#xd8;" horiz-adv-x="1789" d="M246 379v113h221v-113h-221zM246 643v113h303v-113h-303zM246 905v113h221v-113h-221zM754 2v262h264v-262h-264zM754 377v266h264v-266h-264zM754 754v264h264v-264h-264zM1137 2v262h264v-262h-264zM1137 377v266h264v-266h-264zM1137 754v264h264v-264h-264zM1513 2 v266h263v-266h-263zM1513 377v266h263v-266h-263zM1513 754v264h263v-264h-263z" />
<glyph unicode="&#xda;" horiz-adv-x="1032" d="M115 623q0 15 11 25.5t26 10.5h632l-284 285q-10 10 -10 25.5t10 27.5q10 11 25 11t26 -11l348 -350q12 -9 12 -24q0 -18 -12 -27l-348 -348q-6 -6 -13 -8.5t-13.5 -2t-12.5 3.5t-11 8t-8 11t-3.5 12.5t2 13.5t8.5 13l284 287h-632q-15 0 -26 11t-11 26z" />
<glyph unicode="&#xdb;" horiz-adv-x="1032" d="M113 621q0 17 12 26l348 348q12 12 26.5 10.5t23.5 -11.5t11.5 -23.5t-10.5 -26.5l-284 -287h632q15 0 26 -10.5t11 -25.5t-11 -26t-26 -11h-632l284 -285q10 -11 10 -26t-10 -27q-10 -10 -25 -10t-26 10l-348 350q-12 9 -12 25z" />
<glyph unicode="&#xdc;" horiz-adv-x="2158" d="M209 -59v1161l17 17t51 38t86 48t121.5 38t158.5 17q82 0 157.5 -16.5t124.5 -39.5t86.5 -46t54.5 -40l17 -16q6 6 18 17t53.5 38t89 48t124 38t158.5 17t156.5 -16.5t122.5 -39.5t84.5 -46t52.5 -40l16 -16v-1161l-17 17t-50.5 38t-85.5 47.5t-121.5 37.5t-157.5 17 t-158 -16t-125.5 -39.5t-87.5 -46.5t-55 -39l-17 -16q-6 6 -17.5 17t-53 38t-88 47.5t-123 37.5t-158.5 17q-83 0 -158 -16t-123 -39.5t-84.5 -46.5t-52.5 -39zM356 199q133 47 287 47q193 0 367 -80v799q-142 147 -367 147q-168 0 -287 -80v-833zM1157 166q174 80 369 80 q151 0 284 -47v833q-109 80 -284 80q-206 0 -369 -147v-799z" />
<glyph unicode="&#xdf;" horiz-adv-x="1402" d="M252 764q-74 152 44 146q87 -4 265 -91v336q0 55 38.5 94t94.5 39t94.5 -39t38.5 -94v-336q258 126 320 77q39 -32 -10 -134l-430 -795q0 -1 -1 -2t-1 -2q-8 -4 -11 -4q-9 0 -12 6v2z" />
<glyph unicode="&#xe0;" horiz-adv-x="1800" d="M205 2v440h631v-440h-631zM205 580v438h631v-438h-631zM963 2v440h632v-440h-632zM963 580v438h632v-438h-632z" />
<glyph unicode="&#xe1;" horiz-adv-x="2097" d="M139 334q0 139 98 236.5t236 97.5q37 0 74 -11q-28 132 15.5 260.5t150.5 208.5q105 77 225 102t231.5 -9t186.5 -123q30 -39 46 -79t30 -108q108 22 223 -21t192 -136q80 -98 100.5 -219.5t-21 -236.5t-136.5 -194q-126 -99 -279 -102h-1038q-138 0 -236 97.5t-98 236.5 z" />
<glyph unicode="&#xe2;" horiz-adv-x="1918" d="M127 825q170 170 387.5 260.5t450.5 90.5q227 0 447 -92t392 -261l-164 -164q-1 0 -6 5q-130 131 -305 204.5t-364 73.5q-187 0 -362 -72.5t-310 -207.5zM428 528q105 105 245 164.5t292 59.5q149 0 291 -60.5t249 -167.5q-158 -160 -166 -166q-74 75 -170 117.5 t-204 42.5q-106 0 -202.5 -41.5t-170.5 -114.5zM729 225q63 63 145 89t170.5 4.5t159.5 -93.5l-237 -237z" />
<glyph unicode="&#xe3;" horiz-adv-x="1636" d="M176 784q0 159 90 247.5t240 80.5q38 -2 74 -15t82 -35t83 -34q-30 74 -2.5 166t97.5 141q27 13 56.5 4.5t37.5 -30t-12 -47.5q-10 -8 -21.5 -26t-25.5 -50.5t-13 -79t21 -96.5q46 -3 88.5 10t70.5 29.5t67 28.5t79 9q42 -3 75 -13.5t67.5 -36.5t57.5 -67t37.5 -110 t14.5 -160q0 -161 -63 -330.5t-158.5 -278.5t-184.5 -109q-35 0 -60 10t-39 21.5t-48.5 21.5t-87.5 10q-34 0 -66 -11t-52 -22t-56 -17t-78 3q-32 7 -73 31t-95.5 83.5t-98 142.5t-74 222t-30.5 307z" />
<glyph unicode="&#xe4;" horiz-adv-x="1855" d="M205 467q-19 19 -19 42t19 42l450 450q22 22 45 19h897q25 0 43.5 -17.5t18.5 -41.5v-902q0 -24 -18.5 -41.5t-43.5 -17.5h-897q-22 -3 -45 16zM799 340l114 -113l166 168l168 -168l115 113l-168 168l168 168l-115 117l-168 -168l-166 168l-114 -117l166 -168z" />
<glyph unicode="&#xe5;" horiz-adv-x="1712" d="M205 143v848q0 59 40.5 99t98.5 40h131v-55q0 -41 29 -69.5t69 -28.5t69.5 28.5t29.5 69.5v55h362v-55q0 -41 29 -69.5t70 -28.5q39 0 68.5 28.5t29.5 69.5v55h137q58 0 98.5 -40t40.5 -99v-848q0 -58 -40.5 -100.5t-98.5 -42.5h-1024q-58 0 -98.5 42.5t-40.5 100.5z M334 143h201v187h-201v-187zM334 401h201v187h-201v-187zM334 662h201v186h-201v-186zM512 1075v156q0 25 18 42t43 17t43.5 -17.5t18.5 -41.5v-156q0 -26 -18.5 -43.5t-43.5 -17.5t-43 17.5t-18 43.5zM614 143h203v187h-203v-187zM614 401h203v187h-203v-187zM614 662h203 v186h-203v-186zM895 143h203v187h-203v-187zM895 401h203v187h-203v-187zM895 662h203v186h-203v-186zM1071 1075v156q0 25 18 42t44 17q24 0 42.5 -17.5t18.5 -41.5v-156q0 -26 -18.5 -43.5t-42.5 -17.5q-26 0 -44 17.5t-18 43.5zM1178 143h200v187h-200v-187zM1178 401 h200v187h-200v-187zM1178 662h200v186h-200v-186z" />
<glyph unicode="&#xe6;" horiz-adv-x="2430" d="M74 92l311 58h115q-39 25 -39 71v889q0 34 23.5 58t58.5 24h1331q35 0 59.5 -24t24.5 -58v-889q0 -41 -37 -71h107l315 -58l-5 -10t-15 -21.5t-26 -27.5t-37 -21.5t-48 -9.5h-1976q-32 0 -60.5 9.5t-46.5 22.5t-31 26t-18 22zM608 283h1202v761h-1202v-761z" />
<glyph unicode="&#xe7;" horiz-adv-x="1712" d="M205 139v705h1302v-705q0 -57 -40.5 -98t-98.5 -41h-1022q-58 0 -99.5 41t-41.5 98zM205 899v92q0 58 41 98.5t100 40.5h129v-55q0 -41 29 -69.5t69 -28.5t69.5 28.5t29.5 69.5v55h362v-55q0 -41 29.5 -69.5t69.5 -28.5q41 0 69.5 28.5t28.5 69.5v55h137q58 0 98.5 -40 t40.5 -99v-92h-1302zM457 281q29 -64 83.5 -92.5t112.5 -28.5q100 0 158.5 60.5t58.5 141.5q0 69 -44 116t-117 50l133 138q10 9 13.5 25.5t-10.5 31.5t-48 14h-256q-23 0 -32.5 -22.5t0 -45t32.5 -22.5h174l-27 -26q-101 -96 -106 -103q-18 -19 -6 -41t45 -22h47 q45 0 71.5 -26.5t28.5 -63.5q0 -48 -29 -81.5t-82 -33.5q-33 0 -65 15.5t-47 41.5zM512 1075v156q0 25 17.5 42t43.5 17q25 0 43.5 -17.5t18.5 -41.5v-156q0 -26 -18.5 -43.5t-43.5 -17.5q-26 0 -43.5 17.5t-17.5 43.5zM954 604q-21 -20 -15.5 -45.5t28 -33t49.5 6.5l63 50 v-371q0 -22 15.5 -37.5t35.5 -15.5q23 0 37.5 15.5t14.5 37.5v477q0 33 -8 41q-18 17 -39 16.5t-37 -16.5zM1071 1075v156q0 25 18 42t44 17t43.5 -17t17.5 -42v-156q0 -26 -17.5 -43.5t-43.5 -17.5t-44 17.5t-18 43.5z" />
<glyph unicode="&#xe8;" horiz-adv-x="1712" d="M205 143v848q0 59 40.5 99t98.5 40h131v-55q0 -41 29 -69.5t69 -28.5t69.5 28.5t29.5 69.5v55h362v-55q0 -41 29 -69.5t70 -28.5q39 0 68.5 28.5t29.5 69.5v55h137q58 0 98.5 -40t40.5 -99v-848q0 -58 -40.5 -100.5t-98.5 -42.5h-1024q-58 0 -98.5 42.5t-40.5 100.5z M334 143h201v187h-201v-187zM334 401h201v187h-201v-187zM334 662h201v186h-201v-186zM512 1075v156q0 25 18 42t43 17t43.5 -17.5t18.5 -41.5v-156q0 -26 -18.5 -43.5t-43.5 -17.5t-43 17.5t-18 43.5zM608 143h770v187h-770v-187zM608 401h770v187h-770v-187zM608 662h770 v186h-770v-186zM1071 1075v156q0 25 18 42t44 17q24 0 42.5 -17.5t18.5 -41.5v-156q0 -26 -18.5 -43.5t-42.5 -17.5q-26 0 -44 17.5t-18 43.5z" />
<glyph unicode="&#xe9;" horiz-adv-x="1712" d="M205 143v848q0 59 40.5 99t98.5 40h131v-55q0 -41 29 -69.5t69 -28.5t69.5 28.5t29.5 69.5v55h362v-55q0 -41 29 -69.5t70 -28.5q39 0 68.5 28.5t29.5 69.5v55h137q58 0 98.5 -40t40.5 -99v-848q0 -58 -40.5 -100.5t-98.5 -42.5h-1024q-58 0 -98.5 42.5t-40.5 100.5z M334 143h1044v705h-1044v-705zM512 1075v156q0 25 18 42t43 17t43.5 -17.5t18.5 -41.5v-156q0 -26 -18.5 -43.5t-43.5 -17.5t-43 17.5t-18 43.5zM1071 1075v156q0 25 18 42t44 17q24 0 42.5 -17.5t18.5 -41.5v-156q0 -26 -18.5 -43.5t-42.5 -17.5q-26 0 -44 17.5t-18 43.5z " />
<glyph unicode="&#xea;" horiz-adv-x="1712" d="M205 143v848q0 59 40.5 99t98.5 40h1024q58 0 98.5 -40t40.5 -99v-848q0 -58 -40.5 -100.5t-98.5 -42.5h-1024q-58 0 -98.5 42.5t-40.5 100.5zM334 143h201v187h-201v-187zM334 401h201v187h-201v-187zM334 662h201v186h-201v-186zM614 143h764v187h-764v-187zM614 401 h764v187h-764v-187zM614 662h764v186h-764v-186z" />
<glyph unicode="&#xeb;" horiz-adv-x="1536" d="M203 221v897q0 51 36.5 88t88.5 37h34v64q0 17 11 29t28 12t29 -12t12 -29v-64h125v64q0 17 11 29t28 12t29 -12t12 -29v-64h125v64q0 17 12 29t29 12t28 -12t11 -29v-64h125v64q0 17 12 29t29 12t28 -12t11 -29v-64h14q54 0 100 -37.5t46 -87.5v-897q0 -53 -36.5 -89 t-88.5 -36h-764q-52 0 -88.5 36t-36.5 89zM322 1165q0 -34 23.5 -58t55.5 -24q34 0 58 24t24 58q0 47 -41 70v-70q0 -17 -12 -29t-29 -12t-28 12t-11 29v70q-40 -24 -40 -70zM338 33h743q83 0 141 58t58 140v844q3 -1 8 -3t18 -12t22.5 -23t17.5 -37.5t8 -55.5v-713 q0 -89 -47 -155t-119 -96q-61 -21 -107 -21h-630q-25 0 -45.5 7.5t-32.5 18.5t-20.5 22t-11.5 19zM526 1165q0 -34 23 -58t57 -24t58 24t24 58q0 47 -41 70v-70q0 -17 -12 -29t-29 -12t-28 12t-11 29v70q-41 -23 -41 -70zM731 1165q0 -34 24 -58t58 -24t57 24t23 58 q0 47 -41 70v-70q0 -17 -11 -29t-28 -12t-29 12t-12 29v70q-41 -23 -41 -70zM936 1165q0 -34 24 -58t58 -24q32 0 56 24t24 58q0 45 -41 70v-70q0 -17 -11 -29t-28 -12t-29 12t-12 29v70q-41 -23 -41 -70z" />
<glyph unicode="&#xec;" horiz-adv-x="1423" d="M205 0v1241h125q33 66 78 66q25 0 43 -17t36 -49h428v-1241h-448q-3 -16 -7 -31t-14 -32t-15 -26.5t-21.5 -29t-20.5 -24.5t-25.5 -28t-23.5 -26l-41 37q2 2 17 18t18.5 20t16 18.5t17 21l13.5 19.5t13.5 21.5t9 20t6.5 21.5h-205zM1026 0v1241h68q52 0 89.5 -37 t37.5 -88v-991q0 -52 -37 -88.5t-90 -36.5h-68z" />
<glyph unicode="&#xed;" horiz-adv-x="1495" d="M227 125v991q0 51 36.5 88t88.5 37h29v68q0 15 11 26t26 11t26 -11t11 -26v-68h131v68q0 15 11 26t26 11t25.5 -11t10.5 -26v-68h132v68q0 15 10.5 26t25.5 11t26 -11t11 -26v-68h131v68q0 15 11 26t26 11t26 -11t11 -26v-68h10q54 0 100 -37.5t46 -87.5v-991 q0 -53 -36.5 -89t-88.5 -36h-748q-52 0 -88.5 36t-36.5 89zM338 111h776v1056q0 52 -45 72v-80q0 -15 -11 -26t-26 -11t-26 11t-11 26v80q-43 -21 -43 -72h-43q0 52 -45 72v-80q0 -15 -11 -26t-26 -11t-25.5 11t-10.5 26v80q-43 -21 -43 -72h-43q0 24 -12.5 43.5t-33.5 28.5 v-80q0 -15 -10.5 -26t-25.5 -11t-26 11t-11 26v80q-43 -21 -43 -72h-43q0 52 -45 72v-80q0 -15 -11 -26t-26 -11t-26 11t-11 26v80q-43 -21 -43 -72v-1056zM508 391v55h436v-55h-436zM508 592v55h436v-55h-436zM508 791v55h436v-55h-436z" />
<glyph unicode="&#xee;" horiz-adv-x="1409" d="M205 0v1241h127v-1241h-127zM365 0v1241h770q53 0 89 -36.5t36 -88.5v-991q0 -53 -36 -89t-89 -36h-770zM518 797q0 -37 16.5 -75t33.5 -58l16 -19q53 -24 209 -24q71 0 123 6t68 12l17 6q8 8 19 21.5t30 53.5t19 77t-17 74.5t-34 56.5l-17 18q-48 27 -208 27 q-69 0 -121.5 -6.5t-69.5 -13.5l-18 -7q-7 -7 -18 -20.5t-29.5 -52.5t-18.5 -76z" />
<glyph unicode="&#xef;" horiz-adv-x="1454" d="M164 223q0 17 12 29t29 12h49v117h-49q-17 0 -29 12t-12 29t12 29t29 12h49v117h-49q-17 0 -29 12t-12 29t11.5 27.5t29.5 10.5h49v119h-49q-17 0 -29 12t-12 29q0 15 12 27t29 12h49v119h-49q-17 0 -29 12t-12 27q0 17 12 29t29 12h49v182h889q53 0 89 -36.5t36 -88.5 v-989q0 -53 -36 -89t-89 -36h-889v182h-49q-17 0 -29 12t-12 29zM264 182q23 -30 60 -30q29 0 50 20t21 49q0 31 -20.5 51.5t-50.5 20.5q-36 0 -58 -29h58q17 0 29 -12t12 -29t-12 -29t-29 -12h-60zM264 381q24 -31 60 -31q29 0 50 20.5t21 49.5q0 30 -20.5 51t-50.5 21 q-36 0 -58 -29h58q17 0 29 -12t12 -29t-12 -29t-29 -12h-60zM264 580q24 -31 60 -31q29 0 50 20t21 49q0 30 -20.5 51t-50.5 21q-37 0 -58 -31h58q18 0 29.5 -10.5t11.5 -27.5t-12 -29t-29 -12h-60zM264 778q23 -30 60 -30q29 0 50 20t21 49q0 31 -20.5 51.5t-50.5 20.5 q-37 0 -58 -31h58q17 0 29 -11t12 -28t-12 -29t-29 -12h-60zM266 977q21 -31 58 -31q29 0 50 20.5t21 49.5q0 30 -20.5 50.5t-50.5 20.5q-38 0 -58 -30h58q17 0 29 -12t12 -29q0 -15 -12 -27t-29 -12h-58z" />
<glyph unicode="&#xf1;" horiz-adv-x="1439" d="M147 223q0 17 12 29t29 12h52v117h-52q-17 0 -29 12t-12 29t12 29t29 12h52v117h-52q-17 0 -29 12t-12 29t12 29t29 12h52v116h-52q-18 0 -29.5 11.5t-11.5 29.5q0 17 12 29t29 12h52v115h-52q-17 0 -29 12t-12 29t12 29t29 12h52v182h888q52 0 88.5 -36.5t36.5 -88.5 v-989q0 -53 -36.5 -89t-88.5 -36h-888v182h-52q-17 0 -29 12t-12 29zM268 111h875v1022h-875v-76h54q17 0 28.5 -12t11.5 -29t-11.5 -29t-28.5 -12h-54v-115h54q17 0 28.5 -12t11.5 -29t-11.5 -29t-28.5 -12h-54v-116h54q17 0 28.5 -12t11.5 -29t-11.5 -29t-28.5 -12h-54 v-117h54q17 0 28.5 -12t11.5 -29t-11.5 -29t-28.5 -12h-54v-117h54q17 0 28.5 -12t11.5 -29t-11.5 -29t-28.5 -12h-54v-71z" />
<glyph unicode="&#xf2;" horiz-adv-x="1583" d="M205 0v1241h127v-1241h-127zM365 0v1241h729q52 0 88.5 -36.5t36.5 -88.5v-991q0 -53 -36.5 -89t-88.5 -36h-729zM1274 125v231q58 0 86.5 -21.5t28.5 -94.5q0 -68 -29.5 -91.5t-85.5 -23.5zM1274 379v233q58 0 86.5 -22.5t28.5 -95.5q0 -68 -29.5 -91.5t-85.5 -23.5z M1274 631v231q58 0 86.5 -22t28.5 -92t-29 -93.5t-86 -23.5zM1274 881v233q58 0 86.5 -22.5t28.5 -92.5t-29 -94t-86 -24z" />
<glyph unicode="&#xf3;" horiz-adv-x="1536" d="M147 424l398 688l323 203l156 -88q7 24 19 79t22 86t41.5 78t81.5 89q39 32 91 31.5t95 -25.5t73 -68.5t30 -91.5q0 -82 -107 -133q-73 -33 -178 -45q-83 -11 -115 -31l152 -88l-17 -381l-397 -688q-13 -25 -40 -33t-50 6l-551 320q-25 13 -33 40t6 52zM190 258l508 -295 q22 -14 60 -14q70 0 106 61l404 701l12 303l49 -101l-6 -219l-412 -710q-23 -41 -64.5 -65.5t-88.5 -24.5q-46 0 -88 22l-418 244q-56 34 -62 98zM805 1001q0 -49 34.5 -83.5t84.5 -34.5t84 34.5t34 83.5q0 50 -34.5 84.5t-83.5 34.5q-50 0 -84.5 -35t-34.5 -84zM1063 1229 q38 26 125 33q110 13 168 41q88 39 88 102q0 34 -23 69t-57 56.5t-75 25.5t-77 -24q-19 -14 -34 -27.5t-27.5 -31.5t-21 -27.5t-17.5 -33t-13 -30.5t-11 -36.5t-8 -34.5t-8.5 -41t-8.5 -41z" />
<glyph unicode="&#xf4;" d="M123 621q0 136 52.5 259t141.5 212t212 141.5t259 52.5q181 0 334 -88.5t242.5 -242t89.5 -334.5q0 -180 -89.5 -333.5t-243 -243t-333.5 -89.5q-181 0 -334.5 89.5t-242 242.5t-88.5 334zM270 621q0 -141 69 -260.5t188.5 -189t260.5 -69.5t260.5 69.5t189 189 t69.5 260.5t-69.5 260.5t-189 188.5t-260.5 69q-215 0 -366.5 -151.5t-151.5 -366.5zM344 659l107 -6v-63l-105 -2q-5 30 -2 71zM387 432l94 49l33 -55l-90 -55q-24 31 -37 61zM387 813q10 28 35 64l88 -58l-31 -55zM535 989q31 24 61 37l49 -94l-55 -33zM639 621 q0 61 42.5 104t104.5 43q11 0 27 -4l178 254l33 -19l-127 -282q37 -43 37 -96q0 -61 -43 -104.5t-105 -43.5q-61 0 -104 43t-43 105zM750 1067q36 6 73 0l-4 -104h-65zM1063 823l90 56q23 -29 37 -62l-94 -49zM1065 430l33 55l94 -49q-12 -27 -37 -63zM1126 596v63l105 3 q5 -31 2 -72z" />
<glyph unicode="&#xf5;" horiz-adv-x="1464" d="M199 -100l460 737h-282l520 749h346l-350 -489h311l-989 -997h-16z" />
<glyph unicode="&#xf6;" horiz-adv-x="1878" d="M166 0l289 1217q7 30 28 46t45.5 14.5t46.5 -12t34 -33.5t5 -50l-282 -1182h-166zM489 1399q7 36 41.5 55.5t73.5 11.5q38 -10 57.5 -44.5t8.5 -71.5q-9 -37 -43 -57.5t-72 -10.5q-37 11 -56.5 45.5t-9.5 71.5zM494 360l188 799q25 20 73.5 36t98.5 15q83 -3 145 -26 t98 -58.5t62 -79t46 -90t41 -88t55 -76t81 -51.5q44 -16 89.5 -19.5t79 3t61 15t41.5 16.5l14 8l-143 -610q-4 -3 -12 -8.5t-32.5 -20t-50.5 -26.5t-64.5 -24.5t-76 -19t-82.5 -4.5t-86 15q-59 18 -101.5 50t-67 67t-45 69t-48.5 65t-65 48q-43 20 -93 24t-97.5 -3.5 t-108.5 -25.5z" />
<glyph unicode="&#xf7;" horiz-adv-x="1599" d="M184 406l854 854q65 64 162.5 55.5t173.5 -82.5q74 -76 82.5 -173.5t-55.5 -162.5l-854 -854q-65 -64 -162.5 -55.5t-173.5 82.5q-74 76 -82.5 173.5t55.5 162.5zM231 250q0 -15 12 -27t27 -12t27 12t12 27t-12 27t-27 12t-27 -12t-12 -27zM254 389q0 -15 12 -27t27 -12 t27 12t12 27t-12 27t-27 12t-27 -12t-12 -27zM350 131q0 -15 12 -27t27 -12t27 12t12 27t-12 27t-27 12t-27 -12t-12 -27zM371 270q0 -15 12 -27t27 -12t27 12t12 27t-12 27t-27 12t-27 -12t-12 -27zM393 410q0 -15 12 -27t27 -12t27 12t12 27t-12 27t-27 12t-27 -12 t-12 -27zM414 551q0 -15 12 -27t27 -12t27 12t12 27t-12 27t-27 12t-27 -12t-12 -27zM489 154q0 -15 12 -27t27 -12t27 12t12 27t-12 27t-27 12t-27 -12t-12 -27zM510 293q0 -15 12 -27t27 -12t27 12t12 27t-12 27t-27 12t-27 -12t-12 -27zM532 432q0 -15 12 -27t27 -12 t27 12t12 27t-12 27t-27 12t-27 -12t-12 -27zM651 313q0 -15 12 -27t27 -12t27 12t12 27t-12 27t-27 12t-27 -12t-12 -27zM856 991q0 -15 12 -27t27 -12t27 12t12 27t-12 27t-27 12t-27 -12t-12 -27zM975 872q0 -15 12 -26.5t27 -11.5t27 11.5t12 26.5t-12 27t-27 12 t-27 -12t-12 -27zM997 1012q0 -15 12 -27t27 -12t27 12t12 27t-12 27t-27 12t-27 -12t-12 -27zM1018 1151q0 -15 12 -27t27 -12t27 12t12 27t-12 27t-27 12t-27 -12t-12 -27zM1094 754q0 -15 12 -27t27 -12t26.5 12t11.5 27t-11.5 27t-26.5 12t-27 -12t-12 -27zM1114 895 q0 -15 12 -27t27 -12t27 12t12 27t-12 27t-27 12t-27 -12t-12 -27zM1137 1034q0 -15 12 -27t27 -12t26.5 12t11.5 27t-11.5 27t-26.5 12t-27 -12t-12 -27zM1157 1174q0 -15 12 -27t27 -12t27 12t12 27t-12 26.5t-27 11.5t-27 -11.5t-12 -26.5zM1253 915q0 -15 12 -26.5 t27 -11.5t27 11.5t12 26.5t-12 27t-27 12t-27 -12t-12 -27zM1276 1055q0 -15 12 -27t27 -12t27 12t12 27t-12 27t-27 12t-27 -12t-12 -27z" />
<glyph unicode="&#xf8;" horiz-adv-x="1013" d="M203 -117v1551h614v-1551l-307 377z" />
<glyph unicode="&#xf9;" horiz-adv-x="1839" d="M188 766q0 109 49.5 207.5t131.5 168t190 110t223 40.5q118 0 226.5 -39.5t193.5 -113.5q84 -73 129 -170t45 -203t-48 -210t-132 -177q-112 -99 -262 -127.5t-297 14.5q-121 -149 -295 -149q-84 0 -115 19q-19 13 2 30q80 65 102.5 117.5t16.5 138.5q-160 138 -160 344z M889 154q226 18 393 153q85 70 139 169.5t54 217.5v82q22 -21 36 -33q134 -118 134 -286q0 -82 -29 -148t-98 -127q-2 -68 11.5 -103t67.5 -69q39 -23 -34 -34l-45 -5q-121 0 -205 103q-58 -19 -125 -19q-167 0 -299 99z" />
<glyph unicode="&#xfa;" horiz-adv-x="1570" d="M178 0l592 1311q7 16 21 16q6 0 11 -4t7 -8l2 -4l590 -1311h-244l-104 250h-531l-102 -250h-242zM596 444h383l-188 461z" />
<glyph unicode="&#xfb;" horiz-adv-x="1615" d="M162 737q0 158 91 290.5t239 207t315 74.5q128 0 246 -43t211 -123q92 -82 141 -186.5t49 -219.5q0 -116 -52.5 -229.5t-144.5 -192.5q-122 -108 -285 -138.5t-323 16.5q-133 -162 -319 -162q-32 0 -60.5 4t-42.5 8.5t-14 5.5q-11 6 -14 17q0 10 8 18q89 58 112.5 118 t16.5 160q-174 150 -174 375zM406 739q0 -46 31.5 -78t78.5 -32q46 0 77.5 32t31.5 78t-31.5 78.5t-77.5 32.5q-47 0 -78.5 -32.5t-31.5 -78.5zM696 739q0 -46 32.5 -78t78.5 -32t78.5 32t32.5 78t-32.5 78.5t-78.5 32.5t-78.5 -32.5t-32.5 -78.5zM989 739q0 -46 31.5 -78 t77.5 -32q47 0 78.5 32t31.5 78t-31.5 78.5t-78.5 32.5q-46 0 -77.5 -32.5t-31.5 -78.5z" />
<glyph unicode="&#xfc;" horiz-adv-x="1392" d="M174 610l8 16t22 36.5t37 48t51.5 41.5t65.5 26q6 1 53.5 10.5t75.5 17.5t35 17q6 11 107 169t108 173q9 13 -2.5 41.5t-30 64.5t-22.5 56q-6 34 35 92l12 25l510 -295q0 -5 -12 -23q-1 -2 -5.5 -11.5t-7 -14.5t-8.5 -14t-11.5 -14t-14 -10t-17.5 -7q-24 -12 -92 -17 t-76 -18q-12 -19 -95.5 -173t-98.5 -183q-2 -12 -1.5 -23.5t7 -35.5t12 -40.5l12.5 -37.5l9 -27q15 -31 15.5 -68t-10.5 -67t-24 -56t-24 -41l-11 -14l-237 137l-211 -371l-160 -116l27 192l211 373z" />
<glyph unicode="&#xff;" horiz-adv-x="2662" d="M184 451v112q0 8 6 14.5t13 6.5h10q75 0 129 108q3 5 18 35q97 173 289 225q66 17 121 17q119 0 223.5 -57t171.5 -156q2 -4 9 -11q13 -21 38 -10q69 51 138 51q67 0 139 -51q30 -13 47 21q67 99 171 156t224 57q51 0 121 -17q93 -25 167.5 -83t119.5 -142q13 -19 18 -35 q32 -58 62.5 -83t66.5 -25h11q7 0 13.5 -6.5t6.5 -14.5v-112q0 -16 -10 -19q-39 -16 -83 -66t-81 -112q-64 -117 -177 -185.5t-245 -68.5q-55 0 -121 16q-93 25 -167 83.5t-120 142.5q-55 93 -61 207v47q0 41 -29.5 70.5t-72.5 29.5q-41 0 -71 -29.5t-30 -70.5v-47 q-6 -114 -61 -207q-47 -85 -122 -143t-167 -83q-62 -16 -121 -16q-131 0 -244.5 69t-175.5 185q-37 63 -80.5 112.5t-82.5 65.5q-11 4 -11 19zM459 399q29 -111 118 -181.5t201 -70.5q31 0 84 11q131 36 197 155q69 119 33 256q-31 111 -120.5 181.5t-201.5 70.5 q-42 0 -82 -12q-132 -35 -199 -155t-30 -255zM1610 569q-36 -137 30 -256q65 -118 199 -155q49 -11 82 -11q112 0 202.5 71t119.5 181q22 93 1 176t-83 147t-148 87q-41 12 -82 12q-112 0 -202 -70.5t-119 -181.5z" />
<glyph unicode="&#x152;" horiz-adv-x="1814" d="M229 45l269 512l-254 23q4 51 10 114q5 47 41.5 78t83.5 27l758 -66q32 -3 57 -20.5t37 -44.5q-10 29 -4 55l135 678q7 47 46 74.5t87 19.5l113 -20l-148 -760l-35 -205l240 -465q14 -27 -1.5 -53.5t-47.5 -26.5q-33 0 -49 29l-254 493l-697 60l-288 -553q-7 -13 -21 -21 t-28 -8q-33 0 -48.5 26.5t-1.5 53.5z" />
<glyph unicode="&#x153;" horiz-adv-x="2013" d="M147 788q68 253 262 430.5t453 221.5q-67 -64 -121 -193q-96 -231 -102 -549q-48 74 -124 117t-163 43q-116 0 -205 -70zM684 133v53q0 23 16 39.5t39 16.5t39.5 -16.5t16.5 -39.5v-53q0 -34 24 -58t58 -24t59 24t25 58v733q-83 -10 -152.5 -54.5t-114.5 -113.5 q6 307 99 529q46 110 104 168q54 57 113 57q60 0 114 -57q58 -62 103 -168q92 -219 98 -529q-92 141 -254 166v-731q0 -79 -57 -135.5t-137 -56.5t-136.5 56.5t-56.5 135.5zM975 1503l29 99h18l29 -99h-76zM1155 1442q264 -41 462.5 -222.5t266.5 -439.5q-94 78 -215 78 q-89 0 -165 -43t-124 -117q-6 318 -102 549q-53 131 -123 195z" />
<glyph unicode="&#x178;" horiz-adv-x="1826" d="M174 567q-54 94 -24.5 198.5t124.5 160.5q84 47 180.5 29.5t161.5 -95.5q30 -35 69 -34q46 2 209 70q27 11 93 39q55 23 86 36l377 463h23l-179 -363l363 176v-22l-463 -375q-111 -271 -124 -311q-29 -87 -9 -122q8 -13 24 -26q77 -60 96 -157t-30 -185 q-53 -89 -155.5 -120.5t-204.5 20.5q-93 54 -120 159.5t29 202.5q33 50 107.5 140.5t132.5 155.5l59 65l15 119l-117 -17q-350 -293 -362 -299q-64 -37 -136 -37q-68 0 -128.5 34t-96.5 95zM270 625q17 -32 53 -53t76 -21q60 0 104.5 38t52.5 88.5t-19 100.5 q-29 54 -90.5 68.5t-118.5 -17.5q-52 -29 -71 -88t13 -116zM793 254q-31 -48 -16.5 -112t69.5 -95q54 -30 114.5 -13.5t92.5 72.5q31 51 18 117q-16 62 -70 90q-52 31 -114 14t-94 -73zM1087 901q0 -17 11 -28t28 -11q16 0 27.5 11t11.5 28t-11.5 28t-27.5 11q-17 0 -28 -11 t-11 -28z" />
<glyph unicode="&#x192;" horiz-adv-x="1941" d="M205 217v1026h1505v-1026h-268l-101 148h222v731h-1211v-731h221l-100 -148h-268zM500 0l456 670l459 -670h-915z" />
<glyph unicode="&#x3c0;" horiz-adv-x="2387" d="M221 96v172h88v699q0 20 14.5 34.5t34.5 14.5h1348q20 0 34.5 -14.5t14.5 -34.5v-11q34 -71 102.5 -201.5t79.5 -152.5l197 -113q31 -14 31 -45v-301q0 -20 -13.5 -33.5t-35.5 -13.5h-115v19q0 115 -81.5 195.5t-195.5 80.5q-91 0 -157 -47.5t-97 -120.5 q-22 -55 -22 -108v-19h-434v19q0 115 -81.5 195.5t-195.5 80.5q-91 0 -157 -47.5t-97 -120.5q-22 -55 -22 -108v-19h-240zM535 115q0 84 59 143t143 59q85 0 144 -58.5t59 -143.5q0 -84 -59.5 -143.5t-143.5 -59.5q-83 0 -142.5 60t-59.5 143zM662 115q0 -32 21.5 -54 t53.5 -22t54 22t22 54t-22 55t-54 23t-53.5 -22.5t-21.5 -55.5zM1473 606h337l-153 293h-184v-293zM1522 115q0 84 59 143t143 59q85 0 144 -58.5t59 -143.5q0 -84 -59.5 -143.5t-143.5 -59.5q-83 0 -142.5 60t-59.5 143zM1649 115q0 -32 21.5 -54t53.5 -22t54 22t22 54 t-22 55t-54 23t-53.5 -22.5t-21.5 -55.5z" />
<glyph unicode="&#x2000;" horiz-adv-x="860" />
<glyph unicode="&#x2001;" horiz-adv-x="1720" />
<glyph unicode="&#x2002;" horiz-adv-x="860" />
<glyph unicode="&#x2003;" horiz-adv-x="1720" />
<glyph unicode="&#x2004;" horiz-adv-x="573" />
<glyph unicode="&#x2005;" horiz-adv-x="430" />
<glyph unicode="&#x2006;" horiz-adv-x="286" />
<glyph unicode="&#x2007;" horiz-adv-x="286" />
<glyph unicode="&#x2008;" horiz-adv-x="215" />
<glyph unicode="&#x2009;" horiz-adv-x="344" />
<glyph unicode="&#x200a;" horiz-adv-x="95" />
<glyph unicode="&#x2010;" horiz-adv-x="1114" d="M111 225l440 774l444 -774h-884z" />
<glyph unicode="&#x2011;" horiz-adv-x="1114" d="M111 225l440 774l444 -774h-884z" />
<glyph unicode="&#x2012;" horiz-adv-x="1114" d="M111 225l440 774l444 -774h-884z" />
<glyph unicode="&#x2013;" horiz-adv-x="1550" d="M106 621q0 136 52.5 259t141.5 212t212.5 141.5t259.5 52.5q181 0 334 -88.5t242.5 -242t89.5 -334.5q0 -180 -89.5 -333.5t-243 -243t-333.5 -89.5q-181 0 -334.5 89.5t-242.5 242.5t-89 334zM254 621q0 -186 117 -328q3 3 8 9t8 9q104 106 223 177t269 112 q-35 92 -70 156q-222 -68 -465 -68q-14 0 -43 1t-43 1q-4 -46 -4 -69zM274 764q12 0 35.5 -1t34.5 -1q214 0 426 59q-92 145 -238 260q-94 -50 -161.5 -132.5t-96.5 -184.5zM422 240q71 -65 161 -101.5t189 -36.5q79 0 156 25q8 86 8 129q0 145 -37 272q-137 -36 -259 -110 t-218 -178zM610 1114q147 -127 234 -268q157 55 293 143q-70 70 -165 110t-200 40q-82 0 -162 -25zM881 780q30 -58 43 -94q8 -19 26 -70q105 19 203 19q77 0 137 -8q0 171 -104 307q-140 -96 -305 -154zM971 545q39 -136 39 -289q0 -32 -4 -98q114 58 188.5 162t91.5 233 q-57 8 -133 8q-103 0 -182 -16z" />
<glyph unicode="&#x2014;" horiz-adv-x="829" d="M223 299l322 324l-322 321q-11 10 -11 25.5t11 27.5q11 11 26 11t25 -11l349 -350q12 -9 12 -24q0 -18 -12 -27l-349 -348q-9 -9 -21 -10.5t-21 4.5t-15 15t-4.5 21t10.5 21z" />
<glyph unicode="&#x2018;" horiz-adv-x="829" d="M209 623q0 17 12 26l348 348q9 9 21 10.5t21 -4.5t15.5 -15t5.5 -20.5t-11 -21.5l-322 -323l322 -322q11 -11 11 -26t-11 -27q-11 -10 -26 -10t-26 10l-348 350q-12 9 -12 25z" />
<glyph unicode="&#x2019;" horiz-adv-x="1173" d="M231 299l322 324l-322 321q-11 10 -11 25.5t11 27.5q11 11 26 11t26 -11l313 -317l317 317q9 9 21 10.5t21 -4.5t15.5 -15t5.5 -20.5t-11 -21.5l-322 -323l322 -322q11 -10 11 -25.5t-11 -27.5q-10 -10 -25.5 -10t-26.5 10l-315 315l-315 -315q-9 -9 -21 -10.5t-21 4.5 t-15.5 15t-5.5 20.5t11 21.5z" />
<glyph unicode="&#x201a;" horiz-adv-x="1456" d="M150 621l501 507v-344h662v-319h-662v-348z" />
<glyph unicode="&#x201c;" horiz-adv-x="1009" d="M127 424q-11 10 -11 25t11 26l350 348q10 13 25 13q16 0 26 -13l349 -348q16 -16 9 -35.5t-25 -24.5t-36 9l-323 321l-322 -321q-10 -10 -25.5 -10t-27.5 10z" />
<glyph unicode="&#x201d;" horiz-adv-x="1009" d="M127 770q-15 15 -8.5 35t24.5 25t35 -9l324 -321l321 321q11 11 26.5 11t27.5 -11q11 -11 11 -26t-11 -25l-351 -348q-9 -12 -24 -12q-18 0 -27 12z" />
<glyph unicode="&#x201e;" horiz-adv-x="1263" d="M170 623q0 41 29 69.5t69 28.5h523l-144 143q-28 29 -28 70t28 70q29 28 70 28t69 -28l312 -312q30 -30 30 -69q0 -40 -30 -70l-312 -313q-28 -28 -69 -28t-70 28q-28 29 -28 70t28 69l146 145h-525q-40 0 -69 29.5t-29 69.5z" />
<glyph unicode="&#x2020;" horiz-adv-x="1544" d="M190 98q0 75 63.5 129t152.5 54q46 0 92 -17v864q0 25 15 45.5t38 26.5l686 197q34 6 63 -15t29 -57v-924q-3 -75 -65 -126.5t-150 -51.5q-89 0 -152 54t-63 129t63 128.5t152 53.5q44 0 90 -17v519l-583 -164v-836q0 -73 -67.5 -123.5t-147.5 -50.5q-89 0 -152.5 53.5 t-63.5 128.5z" />
<glyph unicode="&#x2021;" horiz-adv-x="1800" d="M205 2v1016h1390v-1016h-1390z" />
<glyph unicode="&#x2022;" horiz-adv-x="1929" d="M117 623q0 61 42.5 104t104.5 43h557q-135 274 -92 350q31 53 152 -6l886 -477q1 -1 3 -2t2 -2q6 -3 6 -10q0 -9 -9 -13q0 -2 -2 -2l-886 -477q-167 -81 -162 49q4 98 102 295h-557q-61 0 -104 43t-43 105z" />
<glyph unicode="&#x2026;" horiz-adv-x="1167" d="M152 623q0 180 126 306t306 126q179 0 304.5 -126t125.5 -306q0 -179 -126 -304.5t-304 -125.5q-180 0 -306 125.5t-126 304.5z" />
<glyph unicode="&#x202f;" horiz-adv-x="344" />
<glyph unicode="&#x2030;" horiz-adv-x="1247" d="M135 618q0 39 31 70l311 313q28 28 69 28t70 -28q28 -29 28 -70t-28 -69l-145 -145h524q40 0 69.5 -29.5t29.5 -69.5q0 -41 -29.5 -69.5t-69.5 -28.5h-522l143 -143q28 -29 28 -69.5t-28 -69.5q-29 -28 -70 -28t-69 28l-311 311q-31 31 -31 69z" />
<glyph unicode="&#x2039;" horiz-adv-x="849" d="M221 240q-28 29 -28 70t28 69l244 244l-244 241q-28 29 -28 70t28 70q29 28 70 28t69 -28l312 -312q30 -30 30 -69q0 -40 -30 -70l-312 -313q-28 -28 -69 -28t-70 28z" />
<glyph unicode="&#x203a;" horiz-adv-x="849" d="M184 621q0 38 31 69l311 314q28 28 69.5 28t70.5 -28q28 -29 28 -70.5t-28 -69.5l-244 -243l244 -242q28 -29 28 -69.5t-28 -69.5q-29 -28 -70.5 -28t-69.5 28l-311 311q-31 31 -31 70z" />
<glyph unicode="&#x2044;" horiz-adv-x="1167" d="M203 242v764h764v-764h-764z" />
<glyph unicode="&#x205f;" horiz-adv-x="430" />
<glyph unicode="&#x20ac;" horiz-adv-x="1042" d="M135 399q-28 29 -28 70.5t28 69.5l311 311q31 31 70 31t70 -31l313 -311q28 -28 28 -69.5t-28 -70.5q-29 -28 -70 -28t-69 28l-244 244l-242 -244q-29 -28 -69.5 -28t-69.5 28z" />
<glyph unicode="&#x2122;" horiz-adv-x="1173" d="M57 262l195 193l-148 149h431v-430l-150 148l-192 -195zM571 641v432l148 -149l196 196l136 -135l-197 -197l150 -147h-433z" />
<glyph unicode="&#x2126;" horiz-adv-x="1964" d="M109 1192l1341 235l66 -383h284v-1046h-1362v96l-133 -22zM236 1102l159 -903l43 8v837h967l-45 256zM549 109h1141v825h-1141v-825zM623 248v612h993v-444l-225 260l-45 18l-349 -383l-143 90zM745 694q0 -40 29.5 -69t69.5 -29t69 29t29 69t-29 69.5t-69 29.5 t-69.5 -29.5t-29.5 -69.5z" />
<glyph unicode="&#x2202;" horiz-adv-x="1808" d="M203 0v1128h1403v-1128h-1403zM313 111h1182v907h-1182v-907zM387 291v653h1034v-485l-225 260l-45 18l-348 -383l-144 90zM551 737q0 -40 29 -69t69 -29t69.5 29t29.5 69t-29.5 69.5t-69.5 29.5t-69 -29.5t-29 -69.5z" />
<glyph unicode="&#x2206;" horiz-adv-x="1427" d="M266 164l424 743h-403v176h846v-176h-408l426 -743h-885z" />
<glyph unicode="&#x220f;" horiz-adv-x="1480" d="M203 1188q29 -26 74.5 -67t134.5 -131.5t118 -137.5q-4 84 10 155.5t41.5 125t70 98t92.5 76t112 57.5q-36 -56 -48.5 -116.5t-9 -101t14.5 -102.5q8 -44 23 -85t30.5 -68.5t29.5 -48t23 -30.5l9 -9q75 76 110 164q25 65 37 118.5t11 74.5l-1 20q32 -22 71.5 -97.5 t76 -181t55.5 -231.5t15.5 -243.5t-50.5 -223.5t-137 -166q-1 52 -17.5 94t-34.5 64.5t-32 55t-12 68.5q1 37 11.5 71.5t24.5 57.5t27.5 40.5t22.5 25.5l10 8q-5 0 -13 -1.5t-32 -9t-46.5 -19t-51.5 -35t-52 -53.5t-42.5 -78t-28.5 -105q-3 26 -9 68t-28.5 135t-50.5 141 q-28 44 -50 64t-30 18l-8 -2q2 -3 5 -8.5t6.5 -27.5t0 -47.5t-21.5 -69.5t-50 -93q-34 -53 -48.5 -101t-10.5 -78t12.5 -52.5t18.5 -32.5l10 -10q-7 2 -19.5 5.5t-45 21.5t-58.5 42t-50.5 70t-31.5 103q-4 -13 -10 -23q-13 -28 -13.5 -79t7 -137t8.5 -126q-80 50 -124 112 t-53.5 121t-1.5 130.5t25.5 130.5t34 131t17.5 123q2 91 -5 169.5t-19 125.5t-24 81.5t-21 47.5z" />
<glyph unicode="&#x2211;" horiz-adv-x="1822" d="M172 383l283 242l-283 239l371 31l-88 362l317 -194l141 344l142 -344l317 194l-88 -362l373 -31l-285 -239l285 -242l-373 -27l88 -362l-317 194l-142 -344l-141 344l-317 -194l88 362z" />
<glyph unicode="&#x221a;" horiz-adv-x="1601" d="M231 799q-48 46 -50.5 122t50.5 134q44 44 106 108t107 109q58 53 132.5 50t121.5 -50q44 -44 57.5 -89t8.5 -124q-6 -83 -3.5 -128t19.5 -102q19 81 22.5 120.5t-1.5 107.5q-6 80 5 124.5t52 90.5q49 47 122.5 51t133.5 -47q46 -44 110 -107t109 -106q54 -56 53 -132 t-49 -124q-41 -44 -86 -58t-125 -12q-158 6 -221 -12q66 -32 211 -27q78 3 120.5 -7.5t82.5 -49.5q47 -45 50.5 -114.5t-46.5 -127.5q-137 -141 -201 -209q-53 -50 -121 -48.5t-114 46.5q-29 27 -41 77t-18.5 102.5t-20.5 76.5q-2 -42 -7 -109t-5.5 -101.5t2.5 -86.5 t16.5 -103.5t38.5 -113.5q3 -10 -6.5 -23t-20.5 -18h-2q-10 -3 -24 0.5t-17 12.5q-25 64 -39 118.5t-17.5 113t-3.5 92.5t5 108t6 108q-5 -15 -14 -45t-14 -44t-14.5 -35.5t-22.5 -38.5t-31 -35q-40 -39 -106 -40t-115 44q-30 32 -170 180q-45 49 -41.5 115t45.5 106 q37 35 76 45.5t106 5.5q53 -7 136 -1.5t120 34.5q-31 8 -244 0q-80 -3 -125 10t-88 56z" />
<glyph unicode="&#x221e;" horiz-adv-x="1574" d="M123 625q0 135 52.5 257.5t141.5 211t212 140.5t259 52q137 0 260 -52t211.5 -140.5t140.5 -211t52 -257.5q0 -137 -52 -260.5t-140.5 -212t-211.5 -141t-260 -52.5q-136 0 -259 52.5t-212 141t-141.5 212t-52.5 260.5zM379 598l348 -338l492 557l-156 141l-361 -393 l-182 174z" />
<glyph unicode="&#x222b;" horiz-adv-x="2045" d="M160 549q0 170 120 291t289 121q115 0 211.5 -58t149.5 -155h241l125 -179l111 115h33l116 -117l166 117h25l145 -139q27 -30 0 -62l-139 -139h-825q-53 -94 -149 -150.5t-210 -56.5q-169 0 -289 121t-120 291zM270 549q0 -60 43 -103t103 -43t102.5 43t42.5 103 t-42.5 102.5t-102.5 42.5t-103 -42.5t-43 -102.5z" />
<glyph unicode="&#x2248;" horiz-adv-x="1404" d="M266 1083h885l-424 -743h403v-176h-845v176h407z" />
<glyph unicode="&#x2260;" horiz-adv-x="1882" d="M68 485l397 574l397 -572l-299 68v-358h508l137 -197h-743q-40 0 -69 28.5t-29 69.5v457zM674 1020h747q41 0 70 -29t29 -69v-478h4l299 70l-400 -573l-397 571l297 -68v379h-512z" />
<glyph unicode="&#x2264;" horiz-adv-x="1998" d="M205 0v1219h1589v-1219h-1589zM315 111h260v997h-260v-997zM686 111h258v997h-258v-997zM1055 111h260v997h-260v-997zM1425 111h258v997h-258v-997z" />
<glyph unicode="&#x2265;" horiz-adv-x="1619" d="M174 -41l115 399l643 641q40 32 110 15t127 -76q31 -31 51.5 -68.5t26.5 -83.5t-20 -84l-645 -639l-402 -110q-3 -2 -5 0t-1 6zM301 147q20 0 42.5 -24t27.5 -45l153 47q25 25 17 67t-45 80q-37 36 -80 44.5t-68 -17.5zM1016 1081l98 99q63 63 149 66.5t154 -60.5 q63 -66 58.5 -151.5t-66.5 -147.5l-98 -99q3 4 6 11.5t7 31.5t-0.5 49t-25 61.5t-57.5 72.5q-33 33 -68 52.5t-62 23t-49 2t-34 -5.5z" />
<glyph unicode="&#x25ca;" horiz-adv-x="1687" d="M80 741q0 23 16 39.5t39 16.5h447l100 272q-26 33 -14 72l69 188q7 23 26.5 36t43.5 13h86q24 0 43.5 -13t26.5 -36l69 -188q12 -39 -14 -72l100 -272h447q23 0 39 -16.5t16 -39.5t-16 -39t-39 -16h-11l-219 -649q-13 -37 -51 -37h-858q-38 0 -51 37l-228 649h-12 q-23 0 -39 16t-16 39zM266 686l49 -141h209l-24 141h-234zM340 471l51 -143h170l-24 143h-197zM416 254l51 -143h133l-25 143h-159zM573 686l25 -141h215v141h-240zM612 471l25 -143h176v143h-201zM649 254l27 -143h137v143h-164zM659 797h381l-90 247q-41 6 -57 48l-43 118 l-43 -118q-16 -42 -57 -48zM887 111h137l27 143h-164v-143zM887 328h176l24 143h-200v-143zM887 545h215l24 141h-239v-141zM1100 111h143l49 143h-168zM1137 328h180l47 143h-201zM1176 545h215l47 141h-238z" />
<glyph unicode="&#xe000;" horiz-adv-x="1290" d="M0 0v1290h1290v-1290h-1290z" />
<glyph unicode="&#xfb01;" horiz-adv-x="1042" d="M135 705q-28 28 -28 69t28 70q29 28 70 28t69 -28l244 -244l242 244q29 28 69.5 28t69.5 -28q28 -29 28 -70t-28 -69l-311 -312q-31 -31 -70 -31q-38 0 -69 31z" />
<glyph unicode="&#xfb02;" horiz-adv-x="1196" d="M223 240q-29 29 -29 70t29 69l242 244l-242 241q-29 29 -29 70t29 70q29 28 69.5 28t69.5 -28l242 -244l242 244q29 28 69.5 28t69.5 -28q29 -29 29 -70t-29 -70l-242 -241l242 -244q29 -28 29 -69t-29 -70q-30 -29 -69 -28.5t-70 28.5l-242 243l-242 -243 q-30 -27 -68.5 -28.5t-70.5 28.5z" />
</font>
</defs>
</svg>
