<?xml version="1.0" encoding="utf-8"?>
<!-- Generator: Adobe Illustrator 18.0.0, SVG Export Plug-In . SVG Version: 6.00 Build 0)  -->
<!DOCTYPE svg PUBLIC "-//W3C//DTD SVG 1.1//EN" "http://www.w3.org/Graphics/SVG/1.1/DTD/svg11.dtd">
<svg version="1.1" id="Layer_1" xmlns="http://www.w3.org/2000/svg" xmlns:xlink="http://www.w3.org/1999/xlink" x="0px" y="0px"
	 width="300px" height="371px" viewBox="0 0 300 371" enable-background="new 0 0 300 371" xml:space="preserve">
<path fill="#077790" d="M0,365C0,243.4,0,121.8,0,0c100,0,200,0,300,0c0,123.5,0,247,0,371c-50.9-18.5-101.1-36.8-150.9-54.9
	C99.1,332.6,49.5,348.8,0,365z M159.8,53.3c-9.6,0-18.8,0-28,0c-0.6,1.6-0.8,2.8,0.3,4.1c9.2,0,18.4,0,27.5,0
	C160.2,55.9,160.1,54.8,159.8,53.3z M159.7,255.9c0.4-1.7,0.7-3-0.4-4.1c-9.3,0-18.5,0-27.9,0c-0.1,1.6-0.8,2.9,0.7,4.1
	C141.1,255.9,150.2,255.9,159.7,255.9z"/>
<path fill="#FDFEFE" d="M159.8,53.3c0.4,1.5,0.5,2.6-0.2,4.1c-9.1,0-18.4,0-27.5,0c-1.1-1.3-0.9-2.5-0.3-4.1
	C140.9,53.3,150.2,53.3,159.8,53.3z"/>
<path fill="#FDFEFE" d="M159.7,255.9c-9.5,0-18.6,0-27.5,0c-1.5-1.2-0.8-2.5-0.7-4.1c9.4,0,18.6,0,27.9,0
	C160.4,253,160.1,254.2,159.7,255.9z"/>
<g>
	<path fill="#FDFEFE" d="M82.9,121.3H76v19.3h-5.1V96.5h12.3c9.3,0,14.7,4.8,14.7,12.2c0,4.3-2.2,10.1-10.1,12l11.1,19.9h-5.7
		L82.9,121.3z M83,100.9H76V117H83c5.9,0,9.9-2.8,9.9-8.1C92.8,103.4,88.8,100.9,83,100.9z"/>
	<path fill="#FDFEFE" d="M117.5,96.5h5.1v44.1h-5.1V96.5z"/>
	<path fill="#FDFEFE" d="M165.5,104.8c-2.2-2.8-5.7-4.7-9.5-4.7c-5.5,0-8.1,3.1-8.1,6.4c0,2.3,0.8,4.7,5.2,7.1l5.5,3
		c7.2,3.8,10,7.4,10,12.7c0,6.5-4.9,12.1-13.6,12.1c-6.2,0-11.3-2.7-14-6l2.6-4.2c2.3,3.2,6.2,5.7,11.2,5.7c5.4,0,8.8-2.9,8.8-7.4
		c0-3.5-1.9-5.9-7.4-8.8l-4.7-2.4c-6-3.1-8.6-6.6-8.6-11.7c0-7.2,6.4-10.9,13-10.9c4.6,0,9.4,1.8,12.3,5.5L165.5,104.8z"/>
	<path fill="#FDFEFE" d="M200.4,140.6h-12.5V96.5h12.5c14.5,0,22.6,8.9,22.6,22.1C223.1,131.7,214.9,140.6,200.4,140.6z
		 M199.6,100.7H193v35.7h6.6c11.5,0,18.4-5.9,18.4-17.8S211,100.7,199.6,100.7z"/>
	<path fill="#FDFEFE" d="M98.5,164.1h5.1v44.1h-5.1V164.1z"/>
	<path fill="#FDFEFE" d="M146.5,172.4c-2.2-2.8-5.7-4.7-9.5-4.7c-5.5,0-8.1,3.1-8.1,6.4c0,2.3,0.8,4.7,5.2,7.1l5.5,3
		c7.2,3.8,10,7.4,10,12.7c0,6.5-4.9,12.1-13.6,12.1c-6.2,0-11.3-2.7-14-6l2.6-4.2c2.3,3.2,6.2,5.7,11.2,5.7c5.4,0,8.8-2.9,8.8-7.4
		c0-3.5-1.9-5.9-7.4-8.8l-4.7-2.4c-6-3.1-8.6-6.6-8.6-11.7c0-7.2,6.4-10.9,13-10.9c4.6,0,9.4,1.8,12.3,5.5L146.5,172.4z"/>
	<path fill="#FDFEFE" d="M186.6,184.7c5.4,1.4,9.2,5.7,9.2,11.4c0,6.8-5.2,12.1-14.2,12.1h-12.6v-44.1h11.3
		c8.7,0,12.9,5.4,12.9,10.8C193.2,179.5,190.8,183.1,186.6,184.7z M174,168.4v14.5h5.9c4.5,0,8.3-2.4,8.3-7.3c0-5.4-4.1-7.2-8.3-7.2
		H174z M174,204h6.2c6.7,0,10.5-3,10.5-8.4c0-5.8-5.2-8.5-9.9-8.5H174V204z"/>
</g>
</svg>
