<?xml version="1.0" encoding="iso-8859-1"?>
<!-- Generator: Adobe Illustrator 16.2.1, SVG Export Plug-In . SVG Version: 6.00 Build 0)  -->
<!DOCTYPE svg PUBLIC "-//W3C//DTD SVG 1.1//EN" "http://www.w3.org/Graphics/SVG/1.1/DTD/svg11.dtd">
<svg version="1.1" id="Layer_1" xmlns="http://www.w3.org/2000/svg" xmlns:xlink="http://www.w3.org/1999/xlink" x="0px" y="0px"
	 width="300px" height="371.029px" viewBox="0 0 300 371.029" style="enable-background:new 0 0 300 371.029;" xml:space="preserve"
	>
<path style="fill:#077790;" d="M0,365.004C0,243.426,0,121.85,0,0c100,0,200,0,300.002,0c0,123.518,0,247.036,0,371.029
	c-50.869-18.502-101.079-36.766-150.861-54.871C99.084,332.551,49.542,348.777,0,365.004z M170.011,139.775
	c5.028,0,9.854,0.377,14.602-0.083c8.47-0.819,13.154-7.134,11.495-14.746c-0.892-4.1-3.776-6.453-7.295-8.327
	c0.426-0.521,0.679-0.97,1.054-1.271c3.617-2.917,4.855-6.717,3.7-11.11c-1.237-4.689-4.748-7.214-9.332-7.856
	c-4.688-0.658-9.447-0.605-14.224,0.022C170.011,110.99,170.011,125.232,170.011,139.775z M139.492,186.535
	c-0.215-4.695-0.188-9.707-1.95-14.481c-2.073-5.616-5.725-8.383-11.073-8.433c-5.348-0.048-9.393,2.636-11.188,8.246
	c-3.073,9.604-2.98,19.346,0.107,28.945c1.035,3.215,3.091,5.856,6.467,7.188c6.2,2.444,12.339-0.169,15.199-6.508
	C139.166,196.814,139.168,191.795,139.492,186.535z M198.098,169.22c6.086-0.807,11.902,0.264,17.55-0.62
	c0.504-1.492,0.692-2.748-0.147-3.952c-7.404,0-14.769,0-22.067,0c0,7.517,0,14.603,0,21.632c2.975,0.439,2.954,0.365,6.86-1.132
	c6.128-2.351,11.073,0.686,11.756,7.229c0.259,2.491,0.222,4.979-0.898,7.333c-1.514,3.182-3.904,4.597-7.62,4.427
	c-3.665-0.166-5.795-1.792-6.847-5.392c-0.411-1.408-0.596-2.881-0.894-4.385c-1.626-0.438-3.204-0.795-4.653,0.342
	c-0.206,6.713,2.137,10.936,7.179,13.041c5.308,2.217,11.698,1.226,15.259-2.725c4.58-5.082,4.93-11.124,2.902-17.306
	c-1.619-4.922-5.383-7.348-10.526-7.814c-2.628-0.239-5.114,0.614-7.853,1.093C198.098,176.97,198.098,173.337,198.098,169.22z
	 M81.291,203.025c3.415-3.681,6.232-6.633,8.953-9.672c3.659-4.088,7.449-8.115,9.172-13.511c1.719-5.386,0.059-10.767-4.177-13.817
	c-4.413-3.178-12.041-3.188-16.497-0.021c-4.329,3.076-5.646,7.945-3.687,13.792c0.141,0.422,0.564,0.749,0.838,1.095
	c1.611,0.081,3.079,0.08,4.171-1.304c-0.066-0.494-0.095-0.983-0.202-1.455c-0.987-4.396-0.213-7.078,2.552-8.781
	c2.811-1.731,6.943-1.652,9.42,0.396c2.882,2.384,3.424,5.48,2.472,9.022c-0.893,3.319-2.747,6.057-4.983,8.532
	c-4.906,5.43-9.915,10.766-15.049,16.321c-0.406,1.19-0.554,2.609,0.241,4.185c8.431,0,16.846,0,25.229,0
	c0.679-1.657,0.728-3.072-0.349-4.782C93.832,203.025,88.081,203.025,81.291,203.025z M149.22,100.533
	c-4.932-4.857-10.603-6.31-17.042-4.455c-8.583,2.472-10.884,12.426-4.36,18.576c1.584,1.495,3.466,2.556,5.408,3.543
	c2.371,1.205,4.76,2.411,6.98,3.863c3.695,2.417,4.918,5.47,3.843,8.863c-0.968,3.058-4.394,5.178-8.41,4.971
	c-3.81-0.197-7.069-1.73-9.649-4.599c-0.36-0.399-0.813-0.503-1.429-0.318c-0.907,1.044-1.837,2.168-2.012,3.682
	c4.968,5.267,12.729,7.294,19.153,5.039c8.383-2.943,10.741-13.151,4.484-19.459c-2.017-2.033-4.494-3.409-6.971-4.782
	c-2.326-1.288-4.72-2.479-6.919-3.959c-2.208-1.485-3.427-3.672-2.826-6.43c0.646-2.972,2.824-4.414,5.639-4.938
	c2.901-0.541,5.638,0.059,8.109,1.667c1.099,0.714,2.098,1.582,3.116,2.359C147.611,103.325,148.482,102.367,149.22,100.533z
	 M155.164,168.647c2.601,0.677,5.142-0.188,7.688,0.68c0,11.293,0,22.494,0,33.601c-2.662,0.959-5.233-0.099-7.6,0.819
	c-0.805,1.448-1.003,2.799,0.047,3.992c7.25,0,14.347,0,21.396,0c0.359-1.557,0.69-2.831-0.483-4.194
	c-2.27-0.117-4.703-0.242-7.662-0.394c0-13.004,0-25.709,0-38.667c-4.795,0-9.031,0-13.23,0
	C154.411,165.791,154.494,167.047,155.164,168.647z M98.337,96.336c0,14.608,0,28.94,0,43.253c1.784,0.231,3.24,0.647,4.696-0.301
	c0-14.329,0-28.653,0-42.884C101.377,95.911,100.068,95.997,98.337,96.336z M159.757,53.262c-9.592,0-18.847,0-28.024,0
	c-0.604,1.562-0.821,2.802,0.29,4.071c9.189,0,18.438,0,27.542,0C160.218,55.898,160.106,54.752,159.757,53.262z M159.724,255.916
	c0.353-1.68,0.699-2.963-0.353-4.134c-9.259,0-18.505,0-27.895,0c-0.057,1.587-0.816,2.892,0.703,4.134
	C141.12,255.916,150.24,255.916,159.724,255.916z"/>
<path style="fill-rule:evenodd;clip-rule:evenodd;fill:#FDFEFE;" d="M170.011,139.775c0-14.543,0-28.785,0-43.37
	c4.776-0.627,9.536-0.68,14.224-0.022c4.584,0.643,8.095,3.167,9.332,7.856c1.155,4.393-0.083,8.193-3.7,11.11
	c-0.375,0.301-0.628,0.75-1.054,1.271c3.519,1.875,6.403,4.228,7.295,8.327c1.659,7.611-3.025,13.926-11.495,14.746
	C179.864,140.152,175.039,139.775,170.011,139.775z M175.257,134.935c3.29,0.546,6.122,0.468,8.908,0.061
	c4.017-0.587,6.497-3.138,6.869-6.761c0.381-3.715-1.413-6.791-5.062-8.253c-3.464-1.391-7.028-1.224-10.716-0.496
	C175.257,124.698,175.257,129.631,175.257,134.935z M175.406,100.93c0,4.608,0,8.954,0,13.486c4.627,0.418,8.998,0.972,12.085-3.02
	c1.776-2.295,1.835-5.107,0.201-7.459C184.581,99.448,179.934,100.719,175.406,100.93z"/>
<path style="fill-rule:evenodd;clip-rule:evenodd;fill:#FDFEFE;" d="M139.492,186.535c-0.324,5.26-0.326,10.279-2.438,14.958
	c-2.859,6.339-8.999,8.952-15.199,6.508c-3.376-1.332-5.433-3.973-6.467-7.188c-3.087-9.599-3.18-19.342-0.107-28.945
	c1.795-5.61,5.84-8.294,11.188-8.246c5.348,0.049,9,2.816,11.073,8.433C139.304,176.828,139.277,181.84,139.492,186.535z
	 M134.055,186.374c0.169-4.079-0.035-8.046-1.144-11.913c-1.165-4.063-3.697-6.463-6.656-6.403
	c-2.849,0.057-5.288,2.155-6.302,6.133c-2.041,8.006-2.012,16.106,0.038,24.101c1.042,4.063,3.363,5.856,6.458,5.81
	c2.978-0.044,5.255-2.077,6.394-5.99C133.964,194.261,134.263,190.293,134.055,186.374z"/>
<path style="fill-rule:evenodd;clip-rule:evenodd;fill:#FDFEFE;" d="M198.098,169.22c0,4.118,0,7.75,0,11.772
	c2.738-0.479,5.225-1.332,7.853-1.093c5.144,0.466,8.907,2.892,10.526,7.814c2.027,6.183,1.678,12.224-2.902,17.306
	c-3.561,3.951-9.951,4.942-15.259,2.725c-5.042-2.105-7.385-6.328-7.179-13.041c1.449-1.138,3.027-0.78,4.653-0.342
	c0.298,1.504,0.482,2.977,0.894,4.385c1.052,3.6,3.182,5.226,6.847,5.392c3.716,0.17,6.106-1.245,7.62-4.427
	c1.12-2.354,1.157-4.843,0.898-7.333c-0.683-6.543-5.628-9.58-11.756-7.229c-3.906,1.498-3.886,1.571-6.86,1.132
	c0-7.029,0-14.115,0-21.632c7.299,0,14.663,0,22.067,0c0.84,1.204,0.651,2.459,0.147,3.952
	C210,169.484,204.184,168.413,198.098,169.22z"/>
<path style="fill-rule:evenodd;clip-rule:evenodd;fill:#FDFEFE;" d="M81.291,203.025c6.79,0,12.541,0,18.105,0
	c1.077,1.71,1.028,3.125,0.349,4.782c-8.383,0-16.798,0-25.229,0c-0.795-1.576-0.647-2.994-0.241-4.185
	c5.134-5.555,10.143-10.892,15.049-16.321c2.236-2.476,4.09-5.213,4.983-8.532c0.953-3.542,0.411-6.639-2.472-9.022
	c-2.477-2.047-6.609-2.127-9.42-0.396c-2.765,1.703-3.54,4.385-2.552,8.781c0.106,0.472,0.135,0.961,0.202,1.455
	c-1.093,1.384-2.561,1.385-4.171,1.304c-0.273-0.346-0.697-0.673-0.838-1.095c-1.958-5.847-0.642-10.717,3.687-13.792
	c4.456-3.167,12.083-3.157,16.497,0.021c4.236,3.051,5.896,8.432,4.177,13.817c-1.723,5.396-5.513,9.423-9.172,13.511
	C87.523,196.392,84.706,199.344,81.291,203.025z"/>
<path style="fill-rule:evenodd;clip-rule:evenodd;fill:#FDFEFE;" d="M149.22,100.533c-0.737,1.834-1.609,2.792-2.886,3.624
	c-1.018-0.778-2.018-1.645-3.116-2.359c-2.471-1.607-5.208-2.207-8.109-1.667c-2.815,0.524-4.993,1.966-5.639,4.938
	c-0.601,2.758,0.619,4.945,2.826,6.43c2.2,1.479,4.594,2.671,6.919,3.959c2.478,1.374,4.954,2.749,6.971,4.782
	c6.256,6.308,3.898,16.516-4.484,19.459c-6.423,2.255-14.185,0.228-19.153-5.039c0.175-1.514,1.104-2.638,2.012-3.682
	c0.616-0.185,1.069-0.081,1.429,0.318c2.581,2.869,5.84,4.401,9.649,4.599c4.016,0.208,7.442-1.913,8.41-4.971
	c1.075-3.394-0.148-6.447-3.843-8.863c-2.22-1.453-4.609-2.658-6.98-3.863c-1.941-0.987-3.823-2.049-5.408-3.543
	c-6.524-6.15-4.223-16.104,4.36-18.576C138.617,94.224,144.288,95.676,149.22,100.533z"/>
<path style="fill-rule:evenodd;clip-rule:evenodd;fill:#FDFEFE;" d="M155.164,168.647c-0.67-1.601-0.753-2.857,0.155-4.163
	c4.199,0,8.436,0,13.23,0c0,12.958,0,25.663,0,38.667c2.959,0.151,5.393,0.276,7.662,0.394c1.174,1.363,0.843,2.637,0.483,4.194
	c-7.049,0-14.146,0-21.396,0c-1.05-1.193-0.852-2.544-0.047-3.992c2.366-0.918,4.938,0.141,7.6-0.819c0-11.107,0-22.308,0-33.601
	C160.306,168.459,157.765,169.324,155.164,168.647z"/>
<path style="fill-rule:evenodd;clip-rule:evenodd;fill:#FDFEFE;" d="M98.337,96.336c1.731-0.339,3.04-0.425,4.696,0.067
	c0,14.231,0,28.556,0,42.884c-1.456,0.948-2.912,0.532-4.696,0.301C98.337,125.276,98.337,110.944,98.337,96.336z"/>
<path style="fill-rule:evenodd;clip-rule:evenodd;fill:#FDFEFE;" d="M159.757,53.262c0.35,1.49,0.461,2.636-0.192,4.071
	c-9.104,0-18.353,0-27.542,0c-1.111-1.269-0.895-2.509-0.29-4.071C140.91,53.262,150.165,53.262,159.757,53.262z"/>
<path style="fill-rule:evenodd;clip-rule:evenodd;fill:#FDFEFE;" d="M159.724,255.916c-9.483,0-18.604,0-27.544,0
	c-1.519-1.242-0.76-2.547-0.703-4.134c9.39,0,18.636,0,27.895,0C160.423,252.953,160.076,254.236,159.724,255.916z"/>
<path style="fill-rule:evenodd;clip-rule:evenodd;fill:#077790;" d="M175.257,134.935c0-5.304,0-10.237,0-15.45
	c3.688-0.728,7.252-0.895,10.716,0.496c3.648,1.462,5.442,4.538,5.062,8.253c-0.372,3.623-2.853,6.174-6.869,6.761
	C181.379,135.403,178.547,135.481,175.257,134.935z"/>
<path style="fill-rule:evenodd;clip-rule:evenodd;fill:#077790;" d="M175.406,100.93c4.527-0.211,9.175-1.482,12.286,3.007
	c1.634,2.352,1.575,5.164-0.201,7.459c-3.087,3.992-7.458,3.438-12.085,3.02C175.406,109.884,175.406,105.538,175.406,100.93z"/>
<path style="fill-rule:evenodd;clip-rule:evenodd;fill:#077790;" d="M134.055,186.374c0.208,3.92-0.091,7.888-1.212,11.738
	c-1.139,3.913-3.416,5.946-6.394,5.99c-3.095,0.046-5.417-1.747-6.458-5.81c-2.05-7.995-2.079-16.095-0.038-24.101
	c1.015-3.978,3.454-6.076,6.302-6.133c2.959-0.06,5.491,2.34,6.656,6.403C134.02,178.327,134.224,182.295,134.055,186.374z"/>
</svg>
